<svg xmlns="http://www.w3.org/2000/svg" version="1.1" xmlns:xlink="http://www.w3.org/1999/xlink" xmlns:svgjs="http://svgjs.com/svgjs" width="512" height="512" x="0" y="0" viewBox="0 0 24 24" style="enable-background:new 0 0 512 512" xml:space="preserve" class=""><g><path d="M19.807 6.891a1.75 1.75 0 0 0-1.746-1.641H5.939a1.75 1.75 0 0 0-1.746 1.641l-.875 14a1.749 1.749 0 0 0 1.746 1.859h13.872a1.75 1.75 0 0 0 1.746-1.859zm-1.497.093.875 14a.25.25 0 0 1-.249.266H5.064a.25.25 0 0 1-.249-.266l.875-14a.25.25 0 0 1 .249-.234h12.122a.25.25 0 0 1 .249.234z" fill="#ffffff" data-original="#000000" class=""></path><path d="M7.5 6.75h9l.032-.003c.144-.018.718-.128.718-.747a4.75 4.75 0 0 0-4.75-4.75h-1A4.75 4.75 0 0 0 6.75 6c0 .199.079.39.22.53.14.141.331.22.53.22zm8.163-1.5H8.337a3.25 3.25 0 0 1 3.163-2.5h1a3.25 3.25 0 0 1 3.163 2.5zM11.25 11v6a.75.75 0 0 0 1.5 0v-6a.75.75 0 0 0-1.5 0z" fill="#ffffff" data-original="#000000" class=""></path><path d="M9 14.75h6a.75.75 0 0 0 0-1.5H9a.75.75 0 0 0 0 1.5z" fill="#ffffff" data-original="#000000" class=""></path></g></svg>