<svg xmlns="http://www.w3.org/2000/svg" version="1.1" xmlns:xlink="http://www.w3.org/1999/xlink" xmlns:svgjs="http://svgjs.com/svgjs" width="512" height="512" x="0" y="0" viewBox="0 0 512.12 512.12" style="enable-background:new 0 0 512 512" xml:space="preserve" class=""><g><path d="M74.727 170.787c-17.673 0-32 14.327-32 32V352.12c0 17.673 14.327 32 32 32s32-14.327 32-32V202.787c0-17.673-14.327-32-32-32zM437.393 170.787c-17.673 0-32 14.327-32 32V352.12c0 17.673 14.327 32 32 32s32-14.327 32-32V202.787c0-17.673-14.326-32-32-32zM373.393 170.787H138.727c-5.891 0-10.667 4.776-10.667 10.667V352.12c-.005 25.348 17.831 47.197 42.667 52.267v75.733c0 17.673 14.327 32 32 32s32-14.327 32-32v-74.667h42.667v74.667c0 17.673 14.327 32 32 32s32-14.327 32-32v-75.733c24.836-5.07 42.672-26.919 42.667-52.267V181.454c-.001-5.891-4.777-10.667-10.668-10.667zM333.607 44.323l26.005-25.984c4.237-4.093 4.354-10.845.262-15.083-4.093-4.237-10.845-4.354-15.083-.262-.089.086-.176.173-.262.262L314.236 33.55a145.988 145.988 0 0 0-116.331 0L167.612 3.235c-4.237-4.093-10.99-3.975-15.083.262-3.992 4.134-3.992 10.687 0 14.82l25.984 26.005a112.575 112.575 0 0 0-50.453 94.464c0 5.891 4.776 10.667 10.667 10.667h234.667c5.891 0 10.667-4.776 10.667-10.667a112.578 112.578 0 0 0-50.454-94.463z" style="" fill="#4caf50" data-original="#4caf50" class=""></path><circle cx="202.727" cy="96.12" r="10.667" style="" fill="#fafafa" data-original="#fafafa"></circle><circle cx="309.393" cy="96.12" r="10.667" style="" fill="#fafafa" data-original="#fafafa"></circle></g></svg>