<svg xmlns="http://www.w3.org/2000/svg" version="1.1" xmlns:xlink="http://www.w3.org/1999/xlink" xmlns:svgjs="http://svgjs.com/svgjs" width="512" height="512" x="0" y="0" viewBox="0 0 32 32" style="enable-background:new 0 0 512 512" xml:space="preserve" class=""><g><g data-name="Layer 2"><path d="M16 17.82A6 6 0 0 1 10.11 13a1 1 0 0 1 1-1.15 1 1 0 0 1 1 .83 4 4 0 0 0 7.83 0 1 1 0 0 1 1-.83 1 1 0 0 1 1 1.15A6 6 0 0 1 16 17.82z" fill="#ffffff" data-original="#000000" class=""></path><path d="M24.9 31H7.1a3 3 0 0 1-3-3.15l.81-17.24a3 3 0 0 1 3-2.87h16.18a3 3 0 0 1 3 2.87l.81 17.24a3 3 0 0 1-3 3.15zM7.91 9.75a1 1 0 0 0-1 1l-.81 17.2a1 1 0 0 0 1 1.05h17.8a1 1 0 0 0 1-1.05l-.81-17.24a1 1 0 0 0-1-1z" fill="#ffffff" data-original="#000000" class=""></path><path d="M22 8.75h-2V7a4 4 0 0 0-8 0v1.75h-2V7a6 6 0 0 1 12 0z" fill="#ffffff" data-original="#000000" class=""></path></g></g></svg>