<svg xmlns="http://www.w3.org/2000/svg" version="1.1" xmlns:xlink="http://www.w3.org/1999/xlink" xmlns:svgjs="http://svgjs.com/svgjs" width="512" height="512" x="0" y="0" viewBox="0 0 448 448" style="enable-background:new 0 0 512 512" xml:space="preserve" class=""><g><path d="M383.921 143.04c-.508-8.46-7.525-15.055-16-15.04h-64V80c0-44.183-35.817-80-80-80s-80 35.817-80 80v48h-64c-8.475-.015-15.492 6.58-16 15.04l-14.08 254.24c-1.502 26.467 18.736 49.141 45.203 50.643a47.43 47.43 0 0 0 2.797.077h252.32c26.51.043 48.034-21.413 48.077-47.923a47.43 47.43 0 0 0-.077-2.797zm-208-63.04c0-26.51 21.49-48 48-48s48 21.49 48 48v48h-96z" fill="#ffffff" data-original="#000000"></path></g></svg>