<svg xmlns="http://www.w3.org/2000/svg" version="1.1" xmlns:xlink="http://www.w3.org/1999/xlink" xmlns:svgjs="http://svgjs.com/svgjs" width="512" height="512" x="0" y="0" viewBox="0 0 511.999 511.999" style="enable-background:new 0 0 512 512" xml:space="preserve" class=""><g><path d="M319.009 332.976a7.46 7.46 0 0 1-3.57.898c-1.94 0-3.86-.75-5.3-2.189l-51.94-51.939a7.52 7.52 0 0 1-2.2-5.311 7.52 7.52 0 0 1-2.2 5.311l-51.94 51.939a7.491 7.491 0 0 1-5.3 2.189 7.46 7.46 0 0 1-3.57-.898L63.5 262.792v141.686c-.001.26.012.518.038.773.011.109.032.215.047.322.019.131.034.262.06.391.032.164.076.322.118.48.02.074.035.148.057.221.049.162.108.318.167.475.026.07.048.141.077.211.058.141.125.277.191.414.041.084.078.168.122.252.06.111.126.219.191.326.062.103.121.207.187.309.055.084.117.162.176.242.085.119.169.236.261.35.051.063.108.121.161.182.106.123.212.244.326.359.06.061.124.115.186.172.114.108.226.215.347.315.117.098.241.185.363.275.072.053.139.109.213.16.215.145.438.279.668.404l184.976 99.986a7.495 7.495 0 0 0 7.133 0l184.976-99.986c.23-.125.453-.26.668-.404.074-.051.142-.107.213-.16.123-.09.247-.178.363-.275.121-.1.233-.207.347-.315.061-.057.126-.111.185-.172.114-.115.22-.236.326-.359.053-.061.11-.119.161-.182.092-.113.176-.23.261-.35.059-.08.121-.158.176-.242.066-.102.125-.205.187-.309.065-.108.132-.215.191-.326.044-.084.081-.168.122-.252.066-.137.133-.273.191-.414.029-.07.051-.141.077-.211a7.4 7.4 0 0 0 .167-.475c.022-.072.037-.147.057-.221.042-.158.086-.316.118-.48.026-.129.041-.26.06-.391.015-.107.037-.213.047-.322.026-.256.039-.514.038-.773V262.792l-129.487 70.184z" style="" fill="#e2ae83" data-original="#e2ae83"></path><path d="M252.069 66.044a7.484 7.484 0 0 0 3.93-6.59 7.502 7.502 0 0 0 3.93 6.58l185 100c1.13.611 2.35.9 3.57.9-1.22 0-2.44.301-3.57.91l-185 100a7.487 7.487 0 0 0-3.93 6.59 7.487 7.487 0 0 0-3.93-6.59l-185-100a7.675 7.675 0 0 0-3.11-.9 7.643 7.643 0 0 0 3.11-.9l185-100z" style="" fill="#c48d69" data-original="#c48d69" class=""></path><path d="M507.359 106.406a7.503 7.503 0 0 1-2.1 6.379l-51.44 51.932a7.467 7.467 0 0 1-5.32 2.219c-1.22 0-2.44-.289-3.57-.9l-185-100a7.502 7.502 0 0 1-3.93-6.58v-.02c0-1.969.78-3.891 2.2-5.299l51.94-51.941a7.486 7.486 0 0 1 8.87-1.289l184.5 100a7.489 7.489 0 0 1 3.85 5.499z" style="" fill="#d39c72" data-original="#d39c72" class=""></path><path d="M505.259 221.095a7.507 7.507 0 0 1 2.1 6.381 7.533 7.533 0 0 1-3.85 5.5l-184.5 100a7.46 7.46 0 0 1-3.57.898c-1.94 0-3.86-.75-5.3-2.189l-51.94-51.939a7.52 7.52 0 0 1-2.2-5.311 7.487 7.487 0 0 1 3.93-6.59l185-100a7.502 7.502 0 0 1 3.57-.91c1.95 0 3.88.77 5.32 2.221l51.44 51.939z" style="" fill="#f2c397" data-original="#f2c397"></path><path d="m505.259 221.095-51.44-51.939a7.502 7.502 0 0 0-5.32-2.221c-1.22 0-2.44.301-3.57.91l-19.532 10.564a7.502 7.502 0 0 1 3.57-.91c1.95 0 3.88.77 5.32 2.221l51.44 51.939a7.504 7.504 0 0 1 2.1 6.381 7.533 7.533 0 0 1-3.85 5.5l19.532-10.564a7.533 7.533 0 0 0 3.85-5.5 7.507 7.507 0 0 0-2.1-6.381zM255.999 59.435v.02a7.484 7.484 0 0 1-3.93 6.59l-185 100c-.99.531-2.05.83-3.11.9a6.83 6.83 0 0 0-.64 0 7.451 7.451 0 0 1-5.14-2.209l-51.44-51.942a7.503 7.503 0 0 1-2.1-6.379 7.529 7.529 0 0 1 3.85-5.5l184.5-100a7.5 7.5 0 0 1 8.87 1.289l51.94 51.941a7.536 7.536 0 0 1 2.2 5.29z" style="" fill="#e2ae83" data-original="#e2ae83"></path><path d="M255.919 273.355c.05.361.08.721.08 1.08a7.52 7.52 0 0 1-2.2 5.311l-51.94 51.939a7.491 7.491 0 0 1-5.3 2.189 7.46 7.46 0 0 1-3.57-.898l-184.5-100a7.533 7.533 0 0 1-3.85-5.5 7.507 7.507 0 0 1 2.1-6.381l51.44-51.939a7.462 7.462 0 0 1 5.14-2.211c.06.01.12.01.18.01.15 0 .3 0 .46-.01 1.06.07 2.12.371 3.11.9l185 100a7.487 7.487 0 0 1 3.85 5.51z" style="" fill="#ffd2a6" data-original="#ffd2a6"></path><path d="M63.959 166.945c-.16.01-.31.01-.46.01-.06 0-.12 0-.18-.01.21-.01.43-.01.64 0z" style="" fill="#e2ae83" data-original="#e2ae83"></path><path d="M446.332 263.966c-.098.188-.199.258-.302.164h-.001l-27.534 14.924v141.675c0 .26-.012.518-.038.773-.011.109-.032.215-.047.322-.019.131-.034.262-.06.391-.032.164-.076.322-.118.48-.02.074-.035.148-.057.221-.049.162-.108.318-.167.475-.026.07-.048.141-.077.211-.058.141-.125.277-.191.414-.04.084-.078.168-.122.252-.06.111-.126.219-.191.326-.061.104-.121.207-.187.309-.055.084-.117.162-.176.242a7.39 7.39 0 0 1-.261.35c-.051.063-.108.121-.161.182-.107.123-.212.244-.326.359-.06.061-.124.115-.185.172-.114.107-.226.215-.347.314-.117.098-.241.186-.363.275-.072.053-.139.109-.213.16-.049.032-.102.06-.151.092l29.486-15.939c.23-.125.453-.26.668-.404.074-.051.142-.107.213-.16.123-.09.247-.178.363-.275.121-.1.233-.207.347-.315.061-.057.126-.111.185-.172.114-.115.22-.236.326-.359.053-.061.11-.119.161-.182.092-.113.176-.23.261-.35.059-.08.121-.158.176-.242.066-.102.125-.205.187-.309.065-.108.132-.215.191-.326.044-.084.081-.168.122-.252.066-.137.133-.273.191-.414.029-.07.051-.141.077-.211a7.4 7.4 0 0 0 .167-.475c.022-.072.037-.147.057-.221.042-.158.086-.316.118-.48.026-.129.041-.26.06-.391.015-.107.037-.213.047-.322.026-.256.039-.514.038-.773V262.792l-2.166 1.174z" style="" fill="#d39c72" data-original="#d39c72" class=""></path><path d="m253.799 279.746-51.94 51.939a7.491 7.491 0 0 1-5.3 2.189 7.46 7.46 0 0 1-3.57-.898L63.5 262.792v141.686c-.001.26.012.518.038.773.011.109.032.215.047.322.019.131.034.262.06.391.032.164.076.322.118.48.02.074.035.148.057.221.049.162.108.318.167.475.026.07.048.141.077.211.058.141.125.277.191.414.041.084.078.168.122.252.06.111.126.219.191.326.062.103.121.207.187.309.055.084.117.162.176.242.085.119.169.236.261.35.051.063.108.121.161.182.106.123.212.244.326.359.06.061.124.115.186.172.114.108.226.215.347.315.117.098.241.185.363.275.072.053.139.109.213.16.215.145.438.279.668.404l184.976 99.986a7.495 7.495 0 0 0 3.567.902V274.435a7.52 7.52 0 0 1-2.2 5.311z" style="" fill="#f2c397" data-original="#f2c397"></path></g></svg>