<svg xmlns="http://www.w3.org/2000/svg" version="1.1" xmlns:xlink="http://www.w3.org/1999/xlink" xmlns:svgjs="http://svgjs.com/svgjs" width="512" height="512" x="0" y="0" viewBox="0 0 512.002 512.002" style="enable-background:new 0 0 512 512" xml:space="preserve" class=""><g><path d="M181.672 275.098a5.576 5.576 0 0 1-5.576-5.576v-70.787a5.576 5.576 0 0 1 11.152 0v70.787a5.575 5.575 0 0 1-5.576 5.576zM218.842 275.098a5.576 5.576 0 0 1-5.576-5.576V216.21a5.576 5.576 0 0 1 11.152 0v53.312a5.576 5.576 0 0 1-5.576 5.576zM255.997 275.098a5.576 5.576 0 0 1-5.576-5.576v-47.951a5.576 5.576 0 0 1 11.152 0v47.951a5.575 5.575 0 0 1-5.576 5.576zM293.167 275.098a5.576 5.576 0 0 1-5.576-5.576v-53.326a5.576 5.576 0 0 1 11.152 0v53.326a5.576 5.576 0 0 1-5.576 5.576zM330.324 275.098a5.576 5.576 0 0 1-5.576-5.576v-70.787a5.576 5.576 0 0 1 11.152 0v70.787a5.576 5.576 0 0 1-5.576 5.576zM144.516 275.098a5.576 5.576 0 0 1-5.576-5.576V163.319a5.576 5.576 0 0 1 11.152 0v106.203a5.575 5.575 0 0 1-5.576 5.576zM367.479 275.098a5.576 5.576 0 0 1-5.576-5.576V163.319a5.576 5.576 0 0 1 11.152 0v106.203a5.576 5.576 0 0 1-5.576 5.576zM470.934 275.098a5.576 5.576 0 0 1-5.576-5.576V163.319a5.576 5.576 0 0 1 11.152 0v106.203a5.576 5.576 0 0 1-5.576 5.576zM41.065 275.098a5.576 5.576 0 0 1-5.576-5.576V163.319a5.576 5.576 0 0 1 11.152 0v106.203a5.575 5.575 0 0 1-5.576 5.576z" style="" fill="#939393" data-original="#939393" class=""></path><path d="M7.605 258.335H504.395l.003 30.711H7.603" style="" fill="#e03232" data-original="#e03232" class=""></path><path d="M256 223.041c-81.771 0-148.759-64.509-152.731-145.314h-20.95c-1.462 30.127-11.614 58.7-29.581 83.05a152.865 152.865 0 0 1-41.047 38.366 7.603 7.603 0 0 1-10.499-2.327 7.604 7.604 0 0 1 2.327-10.499 137.701 137.701 0 0 0 36.98-34.566c17.532-23.761 26.798-51.985 26.798-81.627a7.604 7.604 0 0 1 7.604-7.604h35.787a7.605 7.605 0 0 1 7.604 7.604c0 75.934 61.777 137.71 137.71 137.71S393.71 146.058 393.71 70.124a7.602 7.602 0 0 1 7.604-7.604h35.787c4.2 0 7.604 3.405 7.604 7.604 0 29.642 9.266 57.868 26.796 81.623a137.673 137.673 0 0 0 36.982 34.57 7.604 7.604 0 0 1-8.172 12.826c-15.982-10.183-29.791-23.093-41.049-38.37-17.965-24.346-28.116-52.918-29.579-83.046h-20.951C404.758 158.532 337.771 223.041 256 223.041z" style="" fill="#a01717" data-original="#a01717"></path><path d="M110.686 62.52h-35.79a7.607 7.607 0 0 0-7.604 7.604v282.078a7.607 7.607 0 0 0 7.604 7.604h35.79a7.607 7.607 0 0 0 7.604-7.604V70.124a7.607 7.607 0 0 0-7.604-7.604z" style="" fill="#c92727" data-original="#c92727" class=""></path><path d="M110.686 62.52H87.063a7.607 7.607 0 0 0-7.604 7.604v282.078a7.607 7.607 0 0 0 7.604 7.604h23.623a7.607 7.607 0 0 0 7.604-7.604V70.124a7.607 7.607 0 0 0-7.604-7.604z" style="" fill="#e03232" data-original="#e03232" class=""></path><path d="M126.228 429.204v-70.676a6.319 6.319 0 0 0-6.319-6.319H65.678a6.319 6.319 0 0 0-6.319 6.319v70.676" style="" fill="#d8d8d6" data-original="#d8d8d6"></path><path d="M81.719 429.204v-76.996h-16.04a6.319 6.319 0 0 0-6.319 6.319v70.676" style="" fill="#c4c4c2" data-original="#c4c4c2"></path><path d="M437.101 62.52h-35.789a7.607 7.607 0 0 0-7.604 7.604v282.078a7.607 7.607 0 0 0 7.604 7.604h35.789a7.607 7.607 0 0 0 7.604-7.604V70.124a7.607 7.607 0 0 0-7.604-7.604z" style="" fill="#c92727" data-original="#c92727" class=""></path><path d="M437.101 62.52h-23.623a7.607 7.607 0 0 0-7.604 7.604v282.078a7.607 7.607 0 0 0 7.604 7.604h23.623a7.607 7.607 0 0 0 7.604-7.604V70.124a7.607 7.607 0 0 0-7.604-7.604z" style="" fill="#e03232" data-original="#e03232" class=""></path><path d="M452.644 429.204v-70.676a6.319 6.319 0 0 0-6.319-6.319h-54.23a6.319 6.319 0 0 0-6.319 6.319v70.676" style="" fill="#d8d8d6" data-original="#d8d8d6"></path><path d="M408.134 429.204v-76.996h-16.039a6.319 6.319 0 0 0-6.319 6.319v70.676" style="" fill="#c4c4c2" data-original="#c4c4c2"></path><path d="M504.395 449.481c-31.045 0-31.045-20.277-62.099-20.277-28.682 0-30.872 17.297-55.499 19.933a60.596 60.596 0 0 1-6.6.345c-31.055 0-31.055-20.277-62.099-20.277-31.055 0-31.055 20.277-62.099 20.277s-31.045-20.277-62.099-20.277c-31.045 0-31.045 20.277-62.089 20.277-2.372 0-4.562-.122-6.6-.345-24.637-2.636-26.827-19.933-55.499-19.933-31.045 0-31.045 20.277-62.099 20.277v-34.567c31.055 0 31.055-20.277 62.099-20.277 28.672 0 30.862 17.297 55.499 19.933 2.038.223 4.228.345 6.6.345 31.045 0 31.045-20.277 62.089-20.277 31.055 0 31.055 20.277 62.099 20.277s31.045-20.277 62.099-20.277c31.045 0 31.045 20.277 62.099 20.277 2.372 0 4.562-.122 6.6-.345 24.627-2.636 26.817-19.933 55.499-19.933 31.055 0 31.055 20.277 62.099 20.277v34.567z" style="" fill="#415f70" data-original="#415f70" class=""></path></g></svg>