<svg xmlns="http://www.w3.org/2000/svg" version="1.1" xmlns:xlink="http://www.w3.org/1999/xlink" xmlns:svgjs="http://svgjs.com/svgjs" width="512" height="512" x="0" y="0" viewBox="0 0 512 512" style="enable-background:new 0 0 512 512" xml:space="preserve" class=""><g><path fill="#6cdc2d" fill-rule="evenodd" d="M256 0c141.385 0 256 114.615 256 256S397.385 512 256 512 0 397.385 0 256 114.615 0 256 0zm150.3 374.436a19.622 19.622 0 0 0 0-27.678l-50.111-50.1a19.63 19.63 0 0 0-27.69 0l-13.617 13.623a29.8 29.8 0 0 1-35.245 5.279 200.184 200.184 0 0 1-83.193-83.183 29.82 29.82 0 0 1 5.27-35.257l13.643-13.62a19.631 19.631 0 0 0 0-27.685l-50.111-50.095a19.629 19.629 0 0 0-27.691 0c-2.071 2.065-4.691 4.56-7.493 7.2-7.007 6.623-15.749 14.866-19.283 20.048-18.613 27.239-9.687 63.681 1.036 89.459 14.165 33.977 40.271 71 73.536 104.242 33.235 33.238 70.246 59.347 104.242 73.512 25.772 10.738 62.2 19.642 89.438 1.033 5.179-3.537 13.434-12.258 20.044-19.274 2.651-2.797 5.148-5.44 7.225-7.504z" data-original="#6cdc2d" class=""></path></g></svg>