<svg xmlns="http://www.w3.org/2000/svg" version="1.1" xmlns:xlink="http://www.w3.org/1999/xlink" xmlns:svgjs="http://svgjs.com/svgjs" width="512" height="512" x="0" y="0" viewBox="0 0 28 28" style="enable-background:new 0 0 512 512" xml:space="preserve" class=""><g><linearGradient id="a" x1="10" x2="27" y1="18.5" y2="18.5" gradientUnits="userSpaceOnUse"><stop offset="0" stop-color="#26ab5a"></stop><stop offset="1" stop-color="#7ce35d"></stop></linearGradient><linearGradient xlink:href="#a" id="c" x1="1" x2="21" y1="11" y2="11"></linearGradient><linearGradient id="b" x1="17.379" x2="2.879" y1="2.327" y2="12.949" gradientUnits="userSpaceOnUse"><stop offset="0" stop-color="#fff"></stop><stop offset=".99" stop-color="#bdffd1"></stop></linearGradient><linearGradient xlink:href="#b" id="d" x1="18.413" x2="3.913" y1="3.738" y2="14.36"></linearGradient><g data-name="Layer 2"><path fill="url(#a)" d="M24.333 10H12.667A2.669 2.669 0 0 0 10 12.667V21a2.67 2.67 0 0 0 2.667 2.667h5.222l4.177 3.133a1 1 0 0 0 1.6-.8v-2.333h.666A2.67 2.67 0 0 0 27 21v-8.333A2.669 2.669 0 0 0 24.333 10z" data-original="url(#a)"></path><path fill="url(#c)" d="M18 1H4a3 3 0 0 0-3 3v10a3 3 0 0 0 3 3h1v3a1 1 0 0 0 1.6.8l5-3.753L18 17a3 3 0 0 0 3-3V4a3 3 0 0 0-3-3z" data-original="url(#c)" class=""></path><path fill="url(#b)" d="M6 6h10v2H6z" data-original="url(#b)"></path><path fill="url(#d)" d="M6 10h5v2H6z" data-original="url(#d)"></path></g></g></svg>