<svg xmlns="http://www.w3.org/2000/svg" version="1.1" xmlns:xlink="http://www.w3.org/1999/xlink" xmlns:svgjs="http://svgjs.com/svgjs" width="512" height="512" x="0" y="0" viewBox="0 0 24 24" style="enable-background:new 0 0 512 512" xml:space="preserve" class=""><g><g data-name="Layer 2"><path fill="#afcbf9" d="M20.171 6.25H9.829A2.581 2.581 0 0 0 7.25 8.828v8.344a2.581 2.581 0 0 0 2.579 2.578h4.686a.422.422 0 0 1 .3.123l1.95 1.95a1.75 1.75 0 0 0 2.987-1.237v-.414a.422.422 0 0 1 .421-.422 2.581 2.581 0 0 0 2.579-2.578V8.828a2.581 2.581 0 0 0-2.581-2.578z" data-original="#afcbf9" class=""></path><path fill="#4285f4" d="M16 1.25H4A2.752 2.752 0 0 0 1.25 4v10A2.752 2.752 0 0 0 4 16.75a.25.25 0 0 1 .25.25v1.149A1.731 1.731 0 0 0 5.42 19.8a1.794 1.794 0 0 0 .59.1 1.729 1.729 0 0 0 1.356-.66l1.919-2.4a.248.248 0 0 1 .2-.094H16A2.752 2.752 0 0 0 18.75 14V4A2.752 2.752 0 0 0 16 1.25z" data-original="#4285f4" class=""></path></g></g></svg>