<svg xmlns="http://www.w3.org/2000/svg" version="1.1" xmlns:xlink="http://www.w3.org/1999/xlink" xmlns:svgjs="http://svgjs.com/svgjs" width="512" height="512" x="0" y="0" viewBox="0 0 64 64" style="enable-background:new 0 0 512 512" xml:space="preserve" class=""><g><path d="M45.5 4A18.53 18.53 0 0 0 32 9.86 18.5 18.5 0 0 0 0 22.5C0 40.92 29.71 59 31 59.71a2 2 0 0 0 2.06 0C34.29 59 64 40.92 64 22.5A18.52 18.52 0 0 0 45.5 4ZM32 55.64C26.83 52.34 4 36.92 4 22.5a14.5 14.5 0 0 1 26.36-8.33 2 2 0 0 0 3.27 0A14.5 14.5 0 0 1 60 22.5c0 14.41-22.83 29.83-28 33.14Z" fill="#06c167" data-original="#000000" class=""></path></g></svg>