<svg xmlns="http://www.w3.org/2000/svg" version="1.1" xmlns:xlink="http://www.w3.org/1999/xlink" xmlns:svgjs="http://svgjs.com/svgjs" width="512" height="512" x="0" y="0" viewBox="0 0 512 512" style="enable-background:new 0 0 512 512" xml:space="preserve" class=""><g><path fill="#9dc6fb" d="M4.752 219.416c1.65 15.054 13.844 26.814 28.953 27.872 1.25.088 2.492.176 3.733.256 9.213.625 16.375 8.276 16.375 17.513v34.914c0 11.745 13.443 18.41 22.785 11.296 17.048-12.987 39.729-32.302 53.645-52.331 3.293-4.743 8.732-7.507 14.509-7.475 42.845.216 85.691-1.162 128.536-4.174 11.945-.833 22.088-8.34 26.606-18.899a30.815 30.815 0 0 0 2.347-8.901c6.345-57.963 6.345-115.934 0-173.905-1.65-15.038-13.852-26.742-28.937-27.8A1708.067 1708.067 0 0 0 81.838 15.09a1668.111 1668.111 0 0 0-48.125 2.692C18.62 18.841 6.41 30.546 4.76 45.583c-6.345 57.947-6.345 115.886-.008 173.833z" data-original="#9dc6fb"></path><path fill="#ffc250" d="M506.96 397.891c-1.75 15.966-14.683 28.44-30.709 29.562-1.326.094-2.643.187-3.96.272-9.772.663-17.369 8.778-17.369 18.575v37.031c0 12.457-14.258 19.527-24.166 11.981-18.082-13.774-42.138-34.261-56.898-55.504-3.492-5.031-9.262-7.962-15.389-7.928a1812.902 1812.902 0 0 1-136.331-4.427c-12.669-.884-23.427-8.846-28.219-20.045a32.72 32.72 0 0 1-2.49-9.44c-6.73-61.478-6.73-122.964 0-184.451 1.75-15.949 14.692-28.364 30.692-29.486a1811.485 1811.485 0 0 1 203.077-2.855c17.011.705 34.032 1.657 51.043 2.855 16.009 1.121 28.959 13.536 30.709 29.486 6.731 61.461 6.731 122.914.01 184.374z" data-original="#ffc250"></path><g fill="#454045"><path d="M307.824 285.534c0-13.255-6.493-24.038-14.474-24.038-7.982 0-14.475 10.784-14.475 24.038s6.493 24.038 14.475 24.038c7.981 0 14.474-10.783 14.474-24.038zM405.033 261.496c-7.982 0-14.475 10.784-14.475 24.038s6.493 24.038 14.475 24.038c7.981 0 14.474-10.784 14.474-24.038s-6.493-24.038-14.474-24.038zM399.454 326.073a7.728 7.728 0 0 0-10.122 4.118 43.48 43.48 0 0 1-40.141 26.651 43.482 43.482 0 0 1-40.141-26.651 7.728 7.728 0 0 0-14.24 6.004c9.248 21.93 30.593 36.1 54.38 36.1 23.789 0 45.135-14.17 54.38-36.1a7.726 7.726 0 0 0-4.116-10.122z" fill="#454045" data-original="#454045"></path></g><g fill="#f9f6f9"><path d="M225.389 78.324H50.711a7.726 7.726 0 1 1 0-15.452h174.678a7.726 7.726 0 1 1 0 15.452zM225.389 123.568H50.711a7.726 7.726 0 1 1 0-15.452h174.678a7.726 7.726 0 1 1 0 15.452zM113.038 168.811H50.711a7.726 7.726 0 1 1 0-15.452h62.327a7.726 7.726 0 1 1 0 15.452z" fill="#f9f6f9" data-original="#f9f6f9"></path></g></g></svg>