<svg xmlns="http://www.w3.org/2000/svg" version="1.1" xmlns:xlink="http://www.w3.org/1999/xlink" xmlns:svgjs="http://svgjs.com/svgjs" width="512" height="512" x="0" y="0" viewBox="0 0 512 512" style="enable-background:new 0 0 512 512" xml:space="preserve" class=""><g><path fill="#00cf66" d="m507.219 275.172-40.985-90.162A42.749 42.749 0 0 0 427.4 160H32a10.667 10.667 0 0 0-10.667 10.667V288h16a10.667 10.667 0 1 1 0 21.333h-16v32a32.035 32.035 0 0 0 32 32H480a32.035 32.035 0 0 0 32-32v-44.091a52.958 52.958 0 0 0-4.781-22.07z" data-original="#00cf66"></path><path fill="#00b157" d="M21.333 330.667v10.667a32.035 32.035 0 0 0 32 32H480a32.035 32.035 0 0 0 32-32v-10.667z" data-original="#00b157" class=""></path><path fill="#fac100" d="M490.667 309.333H512v-12.091a53.255 53.255 0 0 0-.871-9.242h-20.462A10.667 10.667 0 0 0 480 298.667a10.667 10.667 0 0 0 10.667 10.666z" data-original="#fac100"></path><path fill="#eaeff0" d="M432.324 202.667H384a10.667 10.667 0 0 0-10.667 10.667V256A10.667 10.667 0 0 0 384 266.667h74.586a10.667 10.667 0 0 0 9.711-15.081l-16.552-36.414a21.333 21.333 0 0 0-19.421-12.505z" data-original="#eaeff0"></path><path fill="#d9e1e2" d="M466.328 247.256a10.476 10.476 0 0 1-7.742 3.41H384A10.667 10.667 0 0 1 373.333 240v16A10.667 10.667 0 0 0 384 266.667h74.586a10.667 10.667 0 0 0 9.711-15.081z" data-original="#d9e1e2"></path><path fill="#fd3730" d="M320 96H53.333a32.035 32.035 0 0 0-32 32v138.667H10.667a10.667 10.667 0 1 0 0 21.333h26.666a10.667 10.667 0 1 1 0 21.333H10.667a10.667 10.667 0 0 0 0 21.333H320a32.035 32.035 0 0 0 32-32V128a32.035 32.035 0 0 0-32-32z" data-original="#fd3730" class=""></path><g fill="#eaeff0"><path d="M106.667 170.667h-32A10.667 10.667 0 0 0 64 181.333v64a10.667 10.667 0 1 0 21.333 0V224h16a10.667 10.667 0 1 0 0-21.333h-16V192h21.333a10.667 10.667 0 0 0 0-21.333zM184.224 197.333a26.7 26.7 0 0 0-26.667-26.667h-21.333a10.667 10.667 0 0 0-10.667 10.667v64a10.667 10.667 0 1 0 21.333 0v-12.755l17.31 19.779a10.665 10.665 0 1 0 16.05-14.047l-13.839-15.82a26.715 26.715 0 0 0 17.813-25.157zm-26.667 5.333h-10.666V192h10.667a5.333 5.333 0 0 1 0 10.667zM237.333 192a10.667 10.667 0 1 0 0-21.333h-32a10.667 10.667 0 0 0-10.667 10.667v64A10.667 10.667 0 0 0 205.333 256h32a10.667 10.667 0 1 0 0-21.333H216V224h15.766a10.667 10.667 0 1 0 0-21.333H216V192zM298.667 234.667h-21.334V224h15.76a10.667 10.667 0 1 0 0-21.333h-15.76V192h21.333a10.667 10.667 0 0 0 0-21.333h-32A10.667 10.667 0 0 0 256 181.333v64A10.667 10.667 0 0 0 266.667 256h32a10.667 10.667 0 0 0 0-21.333z" fill="#eaeff0" data-original="#eaeff0"></path></g><circle cx="117.333" cy="362.667" r="48" fill="#2d4a60" data-original="#2d4a60"></circle><circle cx="117.333" cy="362.667" r="21.333" fill="#d9e1e2" data-original="#d9e1e2"></circle><circle cx="394.667" cy="362.667" r="48" fill="#2d4a60" data-original="#2d4a60"></circle><circle cx="394.667" cy="362.667" r="21.333" fill="#d9e1e2" data-original="#d9e1e2"></circle></g></svg>