<svg xmlns="http://www.w3.org/2000/svg" version="1.1" xmlns:xlink="http://www.w3.org/1999/xlink" xmlns:svgjs="http://svgjs.com/svgjs" width="512" height="512" x="0" y="0" viewBox="0 0 64 64" style="enable-background:new 0 0 512 512" xml:space="preserve" class=""><g><path d="M59 23.132V53a6.006 6.006 0 0 1-6 6H43a4 4 0 0 1-4-4V44a2 2 0 0 0-2-2H27a2 2 0 0 0-2 2v11a4 4 0 0 1-4 4H11a6.006 6.006 0 0 1-6-6V23.132A4.019 4.019 0 0 1 6.942 19.7l23-13.8a4 4 0 0 1 4.117 0l23 13.8A4.019 4.019 0 0 1 59 23.132z" fill="#06c167" data-original="#000000" class=""></path></g></svg>