<svg xmlns="http://www.w3.org/2000/svg" version="1.1" xmlns:xlink="http://www.w3.org/1999/xlink" xmlns:svgjs="http://svgjs.com/svgjs" width="512" height="512" x="0" y="0" viewBox="0 0 38 38" style="enable-background:new 0 0 512 512" xml:space="preserve" class=""><g><path fill="#4c5c75" d="M34.993 19c0 9.505-8.256 16.953-17.772 15.902-8.013-.883-14.228-7.676-14.228-15.903 0-8.836 7.164-16 16-16 8.871 0 16 7.193 16 16z" data-original="#4c5c75" class=""></path><path fill="#ffffff" d="M6.483 11.677c1.192-1.952 2.941-3.504 4.797-4.84 1.189-.855 2.453-1.645 3.857-2.06 2.148-.634 4.35-.286 5.831 1.48.803.956 1.26 2.305.83 3.478-.84 2.293-4.276 2.664-4.833 5.022-.3 1.268.464 2.718-.157 4.27-.315.786-1.086 1.45-1.931 1.382-1.288-.104-2.033-1.726-3.316-1.872-.616-.07-1.226.232-1.673.66-.886.852-1.102 1.924-1.716 2.243-.298.154-.664.128-.977.007-1.244-.48-1.564-2.048-1.913-3.185-.511-1.667-.249-4.21 1.201-6.585z" opacity=".15" data-original="#ffffff" class=""></path><path fill="#ffffff" d="M11.74 7.897c-1.375 1.16-2.65 2.489-3.512 4.081-.79 1.461-1.208 3.15-1.02 4.811.08.705.23 2.617 1.307 2.538.239-.018.513-.348.702-.487.743-.548 1.585-1.012 2.512-1.024.826-.01 1.748.268 2.524-.124.738-.371 1.38-1.177 1.36-2.031-.009-.433-.156-.845-.223-1.27-.222-1.412.446-2.693 1.423-3.72.816-.858 1.731-1.86 1.806-3.107.077-1.26-1.436-2.223-2.588-1.945-1.627.393-3.042 1.226-4.29 2.278z" opacity=".19" data-original="#ffffff" class=""></path><path fill="#394e63" d="M34.993 19c0 8.836-7.163 15.999-16 15.999-6.846 0-12.688-4.3-14.972-10.348 12.171 1.983 22.474-8.903 19.961-20.858 6.394 2.095 11.011 8.112 11.011 15.206z" data-original="#394e63"></path><path fill="#31445b" d="M34.993 19c0 8.836-7.163 15.999-16 15.999-5.534 0-10.412-2.81-13.285-7.08 1.547.449 3.182.69 4.875.69 12.236 0 20.556-12.175 16.472-23.433 4.748 2.774 7.938 7.926 7.938 13.823z" data-original="#31445b" class=""></path><path fill="#1d2943" d="M34.993 19c0 8.836-7.163 15.999-16 15.999a15.938 15.938 0 0 1-10.697-4.102c11.289 3.662 22.925-4.746 22.925-16.656a17.47 17.47 0 0 0-1.505-7.117 15.959 15.959 0 0 1 5.277 11.875z" data-original="#1d2943" class=""></path><g fill="#111d33"><path d="M18.993 34.999c-.599 0-1.19-.033-1.772-.097 11.92-.393 19.903-12.34 15.883-23.452C38.758 21.996 31.151 35 18.994 35z" fill="#111d33" data-original="#111d33"></path><path d="M32.378 12.96c0 .389-.143.704-.32.704-.176 0-.319-.315-.319-.704 0-.39.143-.705.32-.705.176 0 .319.315.319.705zM16.771 32.738c.01.191-.321.365-.742.39-.421.023-.771-.112-.782-.303-.011-.19.321-.365.742-.389.42-.024.771.112.782.302zM29.853 25.705c.218.176.08.71-.308 1.191-.39.482-.88.73-1.1.554-.218-.176-.08-.71.309-1.191.388-.482.88-.73 1.099-.554zM29.512 16.094c-.05.342-.251.596-.448.566-.197-.028-.316-.33-.266-.671.05-.343.251-.596.448-.567.197.03.316.33.266.672zM10.009 28.922c-.023.135-.22.216-.44.181-.531-.085-.472-.555.073-.486.22.036.381.175.367.305zM25.58 24.6c-.23.258-.512.382-.629.277-.116-.105-.023-.398.208-.655.23-.257.513-.38.63-.276.116.104.023.398-.208.655zM19.678 27.588c.073.178-.187.454-.58.615-.395.16-.773.146-.846-.032-.073-.178.187-.454.581-.615.394-.16.772-.147.845.032zM16.866 30.174c.013.186-.229.354-.54.375-.311.021-.574-.113-.587-.299-.012-.186.23-.354.541-.375.311-.021.574.113.586.299zM23.44 26.015c.048.115-.12.292-.374.396-.253.104-.498.095-.544-.02-.048-.115.12-.293.374-.397.254-.104.498-.094.545.02z" fill="#111d33" data-original="#111d33"></path></g><ellipse cx="25.483" cy="6.774" fill="#1d2943" rx=".531" ry=".241" transform="rotate(-87.77 25.485 6.778)" data-original="#1d2943" class=""></ellipse><path fill="#1d2943" d="M26.975 14.604c-.147.4-.413.672-.594.605-.181-.066-.21-.445-.063-.845.146-.4.412-.671.593-.605.182.067.21.445.064.845zM5.868 25.296c-.431-.123-.347-.416.084-.294.179.051.347.416-.084.294zM7.497 26.588c-.037.13-.298.169-.584.088-.285-.082-.487-.253-.45-.382.036-.13.298-.169.583-.087.286.081.487.252.45.381zM24.297 16.455c-.146.255-.359.407-.474.34-.115-.066-.09-.326.057-.58.147-.254.36-.407.475-.34.115.067.09.327-.058.58zM18.567 22.753c.117.154-.065.487-.404.743-.34.256-.71.339-.826.185-.116-.154.066-.486.405-.743.34-.256.71-.339.825-.185zM16.141 25.725c.051.186-.24.428-.652.539-.41.111-.784.051-.834-.135s.24-.427.652-.539c.41-.111.784-.051.834.135zM20.867 25.175c-.429.116-.511-.176-.08-.294.18-.048.507.178.08.294zM11.624 25.175c.035.13-.168.298-.455.376-.286.078-.547.035-.582-.094-.035-.13.168-.298.455-.376.286-.078.547-.036.582.094z" data-original="#1d2943" class=""></path><g fill="#31445b"><path d="M15.93 4.523c.1.214-.17.551-.605.754-.434.202-.867.194-.966-.02-.1-.214.17-.551.605-.754.434-.203.866-.194.966.02zM14.316 14.575c-.24.415-.6.656-.804.538-.204-.118-.175-.55.064-.965.24-.415.6-.656.803-.538.205.118.176.55-.063.965zM19.79 16.315c.185.184.03.637-.344 1.01-.374.375-.827.53-1.011.345-.184-.184-.03-.637.344-1.011.375-.374.827-.529 1.012-.344zM22.868 6.854c-.146.648-.524 1.114-.842 1.041-.318-.072-.458-.655-.31-1.302.146-.647.523-1.114.842-1.041.318.072.457.655.31 1.302zM21.89 4.627c-.095.421-.34.724-.547.677-.208-.047-.298-.426-.202-.847.095-.421.34-.724.547-.677.208.047.298.426.202.847zM6.892 21.814c-.145.457-.444.77-.669.699-.225-.072-.29-.5-.145-.956s.444-.77.669-.698c.224.07.29.499.145.955zM8.187 20.002c-.083.264-.257.445-.387.404-.13-.041-.168-.289-.084-.553.084-.265.257-.446.387-.405.13.041.168.29.084.554zM13.16 22.604c.036.131-.153.297-.42.37-.268.073-.514.025-.55-.107-.035-.132.152-.297.42-.37.268-.073.514-.025.55.107z" fill="#31445b" data-original="#31445b" class=""></path></g><path fill="#ffffff" d="M19.162 31.118c-.294.305-1.78.507-2.136.559-.23.033-.493.04-.685-.111-.193-.193-.112-.36.129-.444.524-.185 1.38.051 2.296-.255.109-.035.269-.121.38-.054.1.06.119.198.016.305zM15.718 31.516c.046.274-1.128.532-2.63.461-.609-.029-1.871-.2-2.281-.637-.158-.169-.073-.33.147-.393.775-.22 2.454.45 4.017.351.183-.011.72-.071.747.218zM24.747 12.877l.64.671-.748-.55c-.092-.067-.231.014-.234.117l-.04 1.698-.255-1.68c-.016-.103-.165-.164-.247-.085l-.67.64.55-.748c.067-.09-.013-.23-.117-.233l-1.698-.04 1.68-.255c.103-.016.163-.165.085-.248l-.64-.67.747.55c.091.066.231-.013.234-.117l.04-1.699.255 1.68c.016.104.165.164.247.086l.671-.64-.55.747c-.067.091.012.231.116.234l1.7.04-1.68.255c-.105.016-.164.165-.086.247z" data-original="#ffffff" class=""></path><path fill="#1d2943" d="M25.362 31.348c-1.89 1.071-4.022 1.067-4.762-.01a1.488 1.488 0 0 1-.249-.968c.068-.982.94-2.133 2.331-2.922 1.703-.965 3.601-1.057 4.502-.279.1.086.186.183.26.29.74 1.076-.193 2.818-2.082 3.889z" data-original="#1d2943" class=""></path><path fill="#111d33" d="M25.362 31.348c-1.89 1.071-4.022 1.067-4.762-.01a1.488 1.488 0 0 1-.249-.968c1.954 1.357 6.41-.71 6.833-3.2.1.085.186.182.26.288.74 1.077-.193 2.819-2.082 3.89z" data-original="#111d33"></path><path fill="#1d2943" d="M14.067 29.525c-1.373-.113-2.488-.877-2.491-1.705 0-.219.076-.42.215-.596.386-.49 1.255-.782 2.265-.699 1.076.09 2.487.718 2.49 1.706.004.828-1.106 1.408-2.479 1.294z" data-original="#1d2943" class=""></path><path fill="#111d33" d="M14.067 29.525c-1.373-.113-2.488-.877-2.491-1.705 0-.219.076-.42.215-.596.54 1.409 3.612 1.917 4.723.763.021.08.033.162.033.244.003.828-1.107 1.408-2.48 1.294z" data-original="#111d33"></path><path fill="#31445b" d="M11.823 18.597c.843-1.35 2.212-2.003 3.056-1.46.223.144.388.357.493.617.294.725.131 1.818-.49 2.811-.682 1.092-2.065 2.097-3.056 1.46-.845-.545-.846-2.08-.003-3.428z" data-original="#31445b" class=""></path><path fill="#1d2943" d="M11.823 18.597c.843-1.35 2.212-2.003 3.056-1.46.223.144.388.357.493.617-1.714-.37-3.868 2.477-3.28 4.397a1.171 1.171 0 0 1-.266-.127c-.845-.544-.846-2.078-.003-3.427z" data-original="#1d2943" class=""></path><path fill="#31445b" d="M18.248 9.329c1.291-1.047 2.78-.778 2.773.555-.009 1.964-2.92 3.683-3.776 2.248-.442-.741.007-1.996 1.003-2.803z" data-original="#31445b" class=""></path><path fill="#1d2943" d="M18.248 9.329c1.291-1.047 2.78-.778 2.773.555-1.101-.894-3.478.656-3.624 2.445a1.03 1.03 0 0 1-.152-.197c-.442-.741.007-1.996 1.003-2.803z" data-original="#1d2943" class=""></path><path fill="#31445b" d="M9.55 12.702c.492-.787 1.29-1.168 1.784-.851.58.373.396 1.368.001 2-.398.637-1.205 1.223-1.783.851-.493-.317-.494-1.213-.002-2z" data-original="#31445b" class=""></path><path fill="#1d2943" d="M9.55 12.702c.492-.787 1.29-1.168 1.784-.851.13.084.226.208.287.36-1-.216-2.257 1.445-1.914 2.565a.683.683 0 0 1-.155-.074c-.493-.317-.494-1.213-.002-2zM23.884 22.537c-1.05 1.04-2.45 1.417-3.128.843a1.013 1.013 0 0 1-.336-.591c-.13-.657.237-1.569 1.01-2.334.822-.815 2.318-1.529 3.127-.843.677.575.376 1.885-.673 2.925z" data-original="#1d2943" class=""></path><path fill="#111d33" d="M23.884 22.537c-1.05 1.04-2.45 1.417-3.128.843a1.013 1.013 0 0 1-.336-.591c1.525.542 4.081-1.61 3.915-3.32.08.039.154.086.222.143.677.575.376 1.885-.673 2.925z" data-original="#111d33"></path><path fill="#1d2943" d="M29.228 10.596c-.171 1.309-.97 2.296-1.786 2.205a1.015 1.015 0 0 1-.578-.275c-.466-.428-.716-1.298-.59-2.261.135-1.046.822-2.313 1.785-2.205.816.091 1.339 1.227 1.169 2.536z" data-original="#1d2943" class=""></path><path fill="#111d33" d="M29.228 10.596c-.171 1.309-.97 2.296-1.786 2.205a1.015 1.015 0 0 1-.578-.275c1.404-.358 2.046-3.257.953-4.462a.954.954 0 0 1 .242-.004c.816.091 1.339 1.227 1.169 2.536z" data-original="#111d33"></path><path fill="#1d2943" d="M31.474 20.265c-.611 1.418-1.82 2.33-2.702 2.037a1.058 1.058 0 0 1-.556-.441c-.383-.586-.383-1.613.067-2.656.48-1.111 1.652-2.386 2.702-2.037.881.293 1.1 1.68.489 3.097z" data-original="#1d2943" class=""></path><path fill="#111d33" d="M31.474 20.265c-.611 1.418-1.82 2.33-2.702 2.037a1.058 1.058 0 0 1-.556-.441c1.69-.07 3.327-3.153 2.498-4.745.093.006.184.023.271.052.881.293 1.1 1.68.489 3.097z" data-original="#111d33"></path></g></svg>