<svg xmlns="http://www.w3.org/2000/svg" version="1.1" xmlns:xlink="http://www.w3.org/1999/xlink" xmlns:svgjs="http://svgjs.com/svgjs" width="512" height="512" x="0" y="0" viewBox="0 0 512 512" style="enable-background:new 0 0 512 512" xml:space="preserve" class=""><g><path d="M213.344 512c38.636 0 70.957-27.543 78.379-64H134.965c7.426 36.457 39.746 64 78.379 64zM362.934 255.98c-.086 0-.172.02-.258.02-82.324 0-149.332-66.988-149.332-149.332 0-22.637 5.207-44.035 14.273-63.277-4.695-.446-9.453-.723-14.273-.723-82.473 0-149.332 66.855-149.332 149.332v59.477c0 42.218-18.496 82.07-50.946 109.503C2.25 370.22-2.55 384.937 1.332 399.297c4.523 16.703 21.035 27.371 38.36 27.371H386.89c18.175 0 35.308-11.777 38.996-29.59 2.86-13.781-2.047-27.543-12.735-36.523-31.02-26.004-48.96-64.215-50.218-104.575zm0 0" fill="#ffffff" data-original="#000000" class=""></path><path d="M469.344 106.668c0 58.91-47.754 106.664-106.668 106.664-58.91 0-106.664-47.754-106.664-106.664C256.012 47.758 303.766 0 362.676 0c58.914 0 106.668 47.758 106.668 106.668zm0 0" fill="#ffffff" data-original="#000000" class=""></path></g></svg>