<svg xmlns="http://www.w3.org/2000/svg" version="1.1" xmlns:xlink="http://www.w3.org/1999/xlink" xmlns:svgjs="http://svgjs.com/svgjs" width="512" height="512" x="0" y="0" viewBox="0 0 512 512" style="enable-background:new 0 0 512 512" xml:space="preserve" class=""><g><path fill="#ffa001" d="M419.68 163.97V387H47.97V163.97L233.83 52.46z" data-original="#ffa001"></path><path fill="#f87f02" d="M419.68 163.97V387H233.83V52.46z" data-original="#f87f02"></path><path fill="#ffda2d" d="M0 163.971 47.968 52.456h185.858l-47.968 111.515z" data-original="#ffda2d"></path><path fill="#fcbe00" d="M467.651 163.971 419.683 52.456H233.826l47.968 111.515z" data-original="#fcbe00" class=""></path><path fill="#ffda2d" d="M107.714 293.542h30v30h-30z" data-original="#ffda2d"></path><path fill="#83e470" d="M512 349.834c0 60.59-49.12 109.71-109.71 109.71-60.6 0-109.72-49.12-109.72-109.71 0-60.6 49.12-109.72 109.72-109.72 60.59 0 109.71 49.119 109.71 109.72z" data-original="#83e470"></path><path fill="#01b763" d="M512 349.834c0 60.59-49.12 109.71-109.71 109.71v-219.43c60.59 0 109.71 49.119 109.71 109.72z" data-original="#01b763"></path><path fill="#f3fdff" d="m459.7 332.064-57.41 57.409-9.95 9.951-47.47-47.471 21.22-21.21 26.25 26.25 9.95-9.949 36.19-36.19z" data-original="#f3fdff"></path><path fill="#d7f3f7" d="m459.7 332.064-57.41 57.409v-42.429l36.19-36.19z" data-original="#d7f3f7"></path></g></svg>