<svg xmlns="http://www.w3.org/2000/svg" version="1.1" xmlns:xlink="http://www.w3.org/1999/xlink" xmlns:svgjs="http://svgjs.com/svgjs" width="512" height="512" x="0" y="0" viewBox="0 0 512 512" style="enable-background:new 0 0 512 512" xml:space="preserve" class=""><g><path fill="#f5871e" d="M496 104V88.79c0-26.322-20.861-48.344-47.18-48.783C421.935 39.558 400 61.217 400 88v32h80c8.837 0 16-7.163 16-16z" data-original="#f5871e"></path><path fill="#fabe19" d="M112 424V224c0-17.673 14.327-32 32-32-17.673 0-32-14.327-32-32V88c0-26.51 21.49-48 48-48h288c-26.51 0-48 21.49-48 48v40c0 17.673-14.327 32-32 32 17.673 0 32 14.327 32 32v16c0 8.837-7.163 16-16 16 8.837 0 16 7.163 16 16v112c0 17.673-14.327 32-32 32 17.673 0 32 14.327 32 32v8c0 26.51-21.49 48-48 48H64c26.51 0 48-21.49 48-48z" data-original="#fabe19"></path><path fill="#f5871e" d="M304 424v-8c0-8.837-7.163-16-16-16H32c-8.837 0-16 7.163-16 16v8c0 26.51 21.49 48 48 48h288c-26.51 0-48-21.49-48-48zM176 232h160c8.837 0 16-7.163 16-16s-7.163-16-16-16H176c-8.837 0-16 7.163-16 16s7.163 16 16 16zM280 296h56c8.837 0 16-7.163 16-16s-7.163-16-16-16h-56c-8.837 0-16 7.163-16 16s7.163 16 16 16zM176 296h56c8.837 0 16-7.163 16-16s-7.163-16-16-16h-56c-8.837 0-16 7.163-16 16s7.163 16 16 16zM240 360h96c8.837 0 16-7.163 16-16s-7.163-16-16-16h-96c-8.837 0-16 7.163-16 16s7.163 16 16 16zM176 360h16c8.837 0 16-7.163 16-16s-7.163-16-16-16h-16c-8.837 0-16 7.163-16 16s7.163 16 16 16zM240 168h96c8.837 0 16-7.163 16-16s-7.163-16-16-16h-96c-8.837 0-16 7.163-16 16s7.163 16 16 16zM176 168h16c8.837 0 16-7.163 16-16s-7.163-16-16-16h-16c-8.837 0-16 7.163-16 16s7.163 16 16 16z" data-original="#f5871e"></path><path fill="#d7322d" d="M200 128h-32v120H48c0 66.274 53.726 120 120 120h32c66.274 0 120-53.726 120-120s-53.726-120-120-120z" data-original="#d7322d"></path><path fill="#d7322d" d="M96 96H64a15.997 15.997 0 0 0-11.313 4.687l-32 32c-6.249 6.248-6.249 16.379 0 22.627l32 32c3 3.001 7.07 4.687 11.313 4.687h32c8.837 0 16-7.164 16-16v-64C112 103.164 104.837 96 96 96z" data-original="#d7322d"></path><circle cx="168" cy="248" r="88" fill="#f0e1cd" data-original="#f0e1cd" class=""></circle><path fill="#b9af9b" d="M168 320a8 8 0 0 1-8-8v-8a8 8 0 0 1 16 0v8a8 8 0 0 1-8 8zM232 256h-8a8 8 0 0 1 0-16h8a8 8 0 0 1 0 16z" data-original="#b9af9b"></path><path fill="#353744" d="M176 225.371V184a8 8 0 0 0-16 0v41.371A24.058 24.058 0 0 0 145.371 240H120a8 8 0 0 0 0 16h25.371c3.295 9.32 12.18 16 22.629 16 13.255 0 24-10.745 24-24 0-10.449-6.68-19.333-16-22.629z" data-original="#353744"></path><circle cx="168" cy="248" r="8" fill="#f5871e" data-original="#f5871e"></circle><path fill="#f04b37" d="M168 128H80v-16a16 16 0 0 0-27.314-11.313l-32 32c-6.249 6.248-6.249 16.379 0 22.627l32 32a15.99 15.99 0 0 0 17.436 3.469A16.001 16.001 0 0 0 80 176v-16h88c48.601 0 88 39.399 88 88s-39.399 88-88 88-88-39.399-88-88a8 8 0 0 0-8-8H56a8 8 0 0 0-8 8c0 66.274 53.726 120 120 120s120-53.726 120-120-53.726-120-120-120z" data-original="#f04b37" class=""></path></g></svg>