<svg xmlns="http://www.w3.org/2000/svg" version="1.1" xmlns:xlink="http://www.w3.org/1999/xlink" xmlns:svgjs="http://svgjs.com/svgjs" width="512" height="512" x="0" y="0" viewBox="0 0 512.035 512.035" style="enable-background:new 0 0 512 512" xml:space="preserve" class=""><g><path d="m488.502 256.035 22.464-58.592c2.464-6.464.544-13.792-4.864-18.176l-48.704-39.488-9.856-61.984c-1.088-6.848-6.464-12.192-13.312-13.28l-61.984-9.856L332.79 5.923c-4.352-5.408-11.84-7.328-18.144-4.864l-58.624 22.496L197.43 1.091c-6.496-2.496-13.76-.512-18.144 4.864l-39.488 48.736-61.984 9.856a16.033 16.033 0 0 0-13.28 13.28l-9.856 61.984-48.736 39.488c-5.376 4.352-7.328 11.68-4.864 18.144l22.464 58.592-22.464 58.592c-2.496 6.464-.512 13.792 4.864 18.144l48.736 39.456 9.856 61.984c1.088 6.848 6.432 12.224 13.28 13.312l61.984 9.856 39.488 48.704a15.923 15.923 0 0 0 18.176 4.864l58.56-22.432 58.592 22.464a16.066 16.066 0 0 0 5.728 1.056c4.704 0 9.344-2.08 12.448-5.952l39.456-48.704 61.984-9.856a16.03 16.03 0 0 0 13.312-13.312l9.856-61.984 48.704-39.456c5.408-4.384 7.328-11.68 4.864-18.144l-22.464-58.592z" style="" fill="#06c167" data-original="#f44336" class=""></path><path d="M208.022 224.035c-26.464 0-48-21.536-48-48s21.536-48 48-48 48 21.536 48 48-21.536 48-48 48zm0-64c-8.832 0-16 7.168-16 16s7.168 16 16 16 16-7.168 16-16-7.168-16-16-16zM304.022 384.035c-26.464 0-48-21.536-48-48s21.536-48 48-48 48 21.536 48 48-21.536 48-48 48zm0-64c-8.8 0-16 7.2-16 16s7.2 16 16 16 16-7.2 16-16-7.2-16-16-16zM176.022 384.035c-3.232 0-6.464-.96-9.28-2.976-7.2-5.152-8.864-15.136-3.712-22.336l160-224c5.152-7.2 15.136-8.864 22.336-3.712 7.2 5.12 8.832 15.136 3.712 22.304l-160 224c-3.168 4.384-8.064 6.72-13.056 6.72z" style="" fill="#fafafa" data-original="#fafafa" class=""></path></g></svg>