<svg xmlns="http://www.w3.org/2000/svg" version="1.1" xmlns:xlink="http://www.w3.org/1999/xlink" xmlns:svgjs="http://svgjs.com/svgjs" width="512" height="512" x="0" y="0" viewBox="0 0 24 24" style="enable-background:new 0 0 512 512" xml:space="preserve" class=""><g><g data-name="Flat Color"><path fill="#20bf55" d="M19.43 3.6a2 2 0 0 1 1.57 2v4.03a13.18 13.18 0 0 1-8.3 12.24 2 2 0 0 1-1.4 0A13.18 13.18 0 0 1 3 9.63V5.56a2 2 0 0 1 1.57-2l7-1.55a1.79 1.79 0 0 1 .86 0z" data-original="#20bf55" class=""></path><path fill="#edebea" d="M11.23 14.77a1 1 0 0 1-.7-.28l-2.28-2.24a1 1 0 0 1 0-1.42 1 1 0 0 1 1.41 0l1.58 1.55 4.11-4a1 1 0 1 1 1.41 1.43l-4.81 4.73a1 1 0 0 1-.72.23z" data-original="#edebea"></path></g></g></svg>