<svg xmlns="http://www.w3.org/2000/svg" version="1.1" xmlns:xlink="http://www.w3.org/1999/xlink" xmlns:svgjs="http://svgjs.com/svgjs" width="512" height="512" x="0" y="0" viewBox="0 0 48 48" style="enable-background:new 0 0 512 512" xml:space="preserve" class=""><g><path d="m40.285 37.46-6.486-6.486a14.738 14.738 0 0 0 3.044-8.988c0-3.97-1.546-7.701-4.353-10.508a14.763 14.763 0 0 0-10.508-4.353c-3.969 0-7.7 1.546-10.508 4.353-5.793 5.794-5.793 15.222 0 21.016a14.762 14.762 0 0 0 10.508 4.353c3.294 0 6.415-1.079 8.989-3.045l6.486 6.487c.39.39.902.586 1.414.586s1.024-.196 1.414-.586a2 2 0 0 0 0-2.829zm-25.982-7.794c-4.235-4.235-4.234-11.125 0-15.36a10.792 10.792 0 0 1 7.68-3.18 10.79 10.79 0 0 1 7.679 3.18 10.79 10.79 0 0 1 3.181 7.68c0 2.901-1.13 5.628-3.181 7.68s-4.778 3.18-7.68 3.18c-2.9 0-5.628-1.13-7.68-3.18z" fill="#000000" data-original="#000000"></path></g></svg>