<svg xmlns="http://www.w3.org/2000/svg" version="1.1" xmlns:xlink="http://www.w3.org/1999/xlink" xmlns:svgjs="http://svgjs.com/svgjs" width="512" height="512" x="0" y="0" viewBox="0 0 512 512" style="enable-background:new 0 0 512 512" xml:space="preserve" class=""><g><linearGradient id="a" x1="256" x2="256" y1="512" y2="0" gradientUnits="userSpaceOnUse"><stop offset="0" stop-color="#5558ff"></stop><stop offset="1" stop-color="#00c0ff"></stop></linearGradient><linearGradient id="b" x1="256" x2="256" y1="361" y2="151" gradientUnits="userSpaceOnUse"><stop offset="0" stop-color="#addcff"></stop><stop offset=".503" stop-color="#eaf6ff"></stop><stop offset="1" stop-color="#eaf6ff"></stop></linearGradient><path fill="url(#a)" d="M286 512h-60a15 15 0 0 1-14.802-12.571l-9.224-56.195a193.28 193.28 0 0 1-40.159-16.673l-45.59 32.563a15 15 0 0 1-19.325-1.6L54.475 415.1a15 15 0 0 1-1.6-19.325l32.563-45.59a193.28 193.28 0 0 1-16.673-40.159l-56.194-9.223A15.002 15.002 0 0 1 0 286v-60a15 15 0 0 1 12.571-14.802l56.194-9.223a193.28 193.28 0 0 1 16.673-40.159l-32.563-45.59a15 15 0 0 1 1.6-19.325L96.9 54.475a15 15 0 0 1 19.325-1.6l45.59 32.563a193.28 193.28 0 0 1 40.159-16.673l9.224-56.195A15 15 0 0 1 226 0h60a15 15 0 0 1 14.802 12.571l9.224 56.194a193.28 193.28 0 0 1 40.159 16.673l45.59-32.563a14.999 14.999 0 0 1 19.325 1.6L457.525 96.9a15 15 0 0 1 1.6 19.325l-32.563 45.59a193.325 193.325 0 0 1 16.673 40.159l56.194 9.223A15.002 15.002 0 0 1 512 226v60a15 15 0 0 1-12.571 14.802l-56.194 9.223a193.226 193.226 0 0 1-16.673 40.159l32.563 45.59a15 15 0 0 1-1.6 19.325L415.1 457.525a15.001 15.001 0 0 1-19.325 1.6l-45.59-32.563a193.302 193.302 0 0 1-40.159 16.673l-9.224 56.194A15 15 0 0 1 286 512zm211-226h.01z" data-original="url(#a)" class=""></path><path fill="url(#b)" d="M256 361c-57.897 0-105-47.103-105-105s47.103-105 105-105 105 47.103 105 105-47.103 105-105 105z" data-original="url(#b)" class=""></path></g></svg>