<svg width="500" height="500" viewBox="0 0 500 500" fill="none" xmlns="http://www.w3.org/2000/svg">
<path d="M0 100C0 44.7715 44.7715 0 100 0H400C455.228 0 500 44.7715 500 100V400C500 455.228 455.228 500 400 500H100C44.7715 500 0 455.228 0 400V100Z" fill="#06C167"/>
<path d="M46.36 198.16C47.7533 199.26 50.1367 200.763 53.51 202.67C56.9567 204.577 60.22 205.53 63.3 205.53C66.4533 205.53 68.03 204.32 68.03 201.9C68.03 200.8 67.59 199.847 66.71 199.04C65.83 198.16 64.2167 197.17 61.87 196.07C59.5233 194.97 57.7633 194.127 56.59 193.54C55.4167 192.88 53.84 191.853 51.86 190.46C49.9533 188.993 48.4867 187.49 47.46 185.95C44.5267 181.77 43.06 176.453 43.06 170C43.06 163.547 45.4433 158.12 50.21 153.72C55.05 149.247 61.3567 147.01 69.13 147.01C74.41 147.01 79.2867 147.597 83.76 148.77C88.2333 149.87 90.5433 151.337 90.69 153.17C90.69 153.39 90.69 153.61 90.69 153.83C90.69 156.397 89.8833 159.66 88.27 163.62C86.6567 167.507 85.52 169.67 84.86 170.11C80.1667 167.69 75.95 166.48 72.21 166.48C68.5433 166.48 66.71 167.8 66.71 170.44C66.71 172.053 68.0667 173.483 70.78 174.73C71.3667 175.023 72.21 175.427 73.31 175.94C74.41 176.453 75.6567 177.077 77.05 177.81C78.5167 178.47 80.0567 179.35 81.67 180.45C83.3567 181.477 85.1533 182.87 87.06 184.63C90.9467 188.297 92.89 193.137 92.89 199.15C92.89 206.997 90.7267 213.413 86.4 218.4C82.0733 223.387 75.4 225.953 66.38 226.1C61.98 226.1 57.9833 225.733 54.39 225C50.87 224.267 47.79 222.837 45.15 220.71C42.51 218.583 41.19 216.017 41.19 213.01C41.19 210.003 41.74 207.033 42.84 204.1C43.94 201.093 45.1133 199.113 46.36 198.16ZM135.048 223.24C135.048 224.707 131.418 225.44 124.158 225.44C116.898 225.44 113.268 224.707 113.268 223.24V168.02H100.067C98.8208 168.02 97.9408 166.333 97.4275 162.96C97.2075 161.347 97.0975 159.697 97.0975 158.01C97.0975 156.323 97.2075 154.673 97.4275 153.06C97.9408 149.687 98.8208 148 100.067 148H147.918C149.164 148 150.044 149.687 150.558 153.06C150.778 154.673 150.888 156.323 150.888 158.01C150.888 159.697 150.778 161.347 150.558 162.96C150.044 166.333 149.164 168.02 147.918 168.02H135.048V223.24ZM178.162 223.46C178.162 224.633 174.679 225.22 167.712 225.22C160.672 225.22 157.152 224.67 157.152 223.57V151.85C157.152 149.283 158.509 148 161.222 148H182.232C201.519 148 211.162 155.517 211.162 170.55C211.162 175.097 210.282 179.24 208.522 182.98C206.762 186.647 204.269 189.58 201.042 191.78L214.902 214.88C214.316 216.64 212.409 218.657 209.182 220.93C204.782 224.083 201.152 225.66 198.292 225.66C195.432 225.66 193.306 224.633 191.912 222.58L181.572 198.49H178.162V223.46ZM178.162 167.47V183.97H178.712C185.679 183.97 189.162 181.073 189.162 175.28C189.162 172.64 188.466 170.697 187.072 169.45C185.752 168.13 183.552 167.47 180.472 167.47H178.162ZM257.785 178.58C259.178 178.58 259.875 181.147 259.875 186.28C259.875 187.82 259.692 189.653 259.325 191.78C259.032 193.833 258.445 194.86 257.565 194.86H243.595V205.86H263.835C265.082 205.86 265.925 207.473 266.365 210.7C266.585 212.093 266.695 213.597 266.695 215.21C266.695 216.75 266.475 218.767 266.035 221.26C265.595 223.753 264.862 225 263.835 225H226.215C223.428 225 222.035 223.863 222.035 221.59V150.86C222.035 148.953 222.878 148 224.565 148H263.945C265.485 148 266.255 151.263 266.255 157.79C266.255 164.243 265.485 167.47 263.945 167.47H243.595V178.58H257.785ZM312.033 178.58C313.427 178.58 314.123 181.147 314.123 186.28C314.123 187.82 313.94 189.653 313.573 191.78C313.28 193.833 312.693 194.86 311.813 194.86H297.843V205.86H318.083C319.33 205.86 320.173 207.473 320.613 210.7C320.833 212.093 320.943 213.597 320.943 215.21C320.943 216.75 320.723 218.767 320.283 221.26C319.843 223.753 319.11 225 318.083 225H280.463C277.677 225 276.283 223.863 276.283 221.59V150.86C276.283 148.953 277.127 148 278.813 148H318.193C319.733 148 320.503 151.263 320.503 157.79C320.503 164.243 319.733 167.47 318.193 167.47H297.843V178.58H312.033ZM363.641 223.24C363.641 224.707 360.011 225.44 352.751 225.44C345.491 225.44 341.861 224.707 341.861 223.24V168.02H328.661C327.415 168.02 326.535 166.333 326.021 162.96C325.801 161.347 325.691 159.697 325.691 158.01C325.691 156.323 325.801 154.673 326.021 153.06C326.535 149.687 327.415 148 328.661 148H376.511C377.758 148 378.638 149.687 379.151 153.06C379.371 154.673 379.481 156.323 379.481 158.01C379.481 159.697 379.371 161.347 379.151 162.96C378.638 166.333 377.758 168.02 376.511 168.02H363.641V223.24ZM388.606 198.16C389.999 199.26 392.383 200.763 395.756 202.67C399.203 204.577 402.466 205.53 405.546 205.53C408.699 205.53 410.276 204.32 410.276 201.9C410.276 200.8 409.836 199.847 408.956 199.04C408.076 198.16 406.463 197.17 404.116 196.07C401.769 194.97 400.009 194.127 398.836 193.54C397.663 192.88 396.086 191.853 394.106 190.46C392.199 188.993 390.733 187.49 389.706 185.95C386.773 181.77 385.306 176.453 385.306 170C385.306 163.547 387.689 158.12 392.456 153.72C397.296 149.247 403.603 147.01 411.376 147.01C416.656 147.01 421.533 147.597 426.006 148.77C430.479 149.87 432.789 151.337 432.936 153.17C432.936 153.39 432.936 153.61 432.936 153.83C432.936 156.397 432.129 159.66 430.516 163.62C428.903 167.507 427.766 169.67 427.106 170.11C422.413 167.69 418.196 166.48 414.456 166.48C410.789 166.48 408.956 167.8 408.956 170.44C408.956 172.053 410.313 173.483 413.026 174.73C413.613 175.023 414.456 175.427 415.556 175.94C416.656 176.453 417.903 177.077 419.296 177.81C420.763 178.47 422.303 179.35 423.916 180.45C425.603 181.477 427.399 182.87 429.306 184.63C433.193 188.297 435.136 193.137 435.136 199.15C435.136 206.997 432.973 213.413 428.646 218.4C424.319 223.387 417.646 225.953 408.626 226.1C404.226 226.1 400.229 225.733 396.636 225C393.116 224.267 390.036 222.837 387.396 220.71C384.756 218.583 383.436 216.017 383.436 213.01C383.436 210.003 383.986 207.033 385.086 204.1C386.186 201.093 387.359 199.113 388.606 198.16ZM84.64 274C85.8867 274 86.51 277.263 86.51 283.79C86.51 290.243 85.8867 293.47 84.64 293.47H64.51V306.01H77.93C79.1767 306.01 79.8 308.87 79.8 314.59C79.8 320.237 79.2133 323.06 78.04 323.06H64.51V349.57C64.51 350.597 63.1167 351.257 60.33 351.55C57.6167 351.917 55.3433 352.1 53.51 352.1L48.34 351.88C44.7467 351.44 42.95 350.707 42.95 349.68V276.86C42.95 275.687 43.17 274.917 43.61 274.55C44.1233 274.183 44.8567 274 45.81 274H84.64ZM128.055 352.1C117.788 352.1 109.391 348.727 102.865 341.98C96.4114 335.233 93.1848 325.407 93.1848 312.5C93.1848 299.52 96.4481 289.693 102.975 283.02C109.575 276.347 118.045 273.01 128.385 273.01C138.798 273.01 147.195 276.31 153.575 282.91C159.955 289.437 163.145 299.373 163.145 312.72C163.145 325.993 159.881 335.893 153.355 342.42C146.828 348.873 138.395 352.1 128.055 352.1ZM128.165 294.13C124.645 294.13 121.675 295.743 119.255 298.97C116.908 302.197 115.735 306.743 115.735 312.61C115.735 318.403 116.871 322.877 119.145 326.03C121.418 329.11 124.388 330.65 128.055 330.65C131.795 330.65 134.801 329.073 137.075 325.92C139.421 322.767 140.595 318.257 140.595 312.39C140.595 306.523 139.385 302.013 136.965 298.86C134.618 295.707 131.685 294.13 128.165 294.13ZM204.647 352.1C194.38 352.1 185.983 348.727 179.457 341.98C173.003 335.233 169.777 325.407 169.777 312.5C169.777 299.52 173.04 289.693 179.567 283.02C186.167 276.347 194.637 273.01 204.977 273.01C215.39 273.01 223.787 276.31 230.167 282.91C236.547 289.437 239.737 299.373 239.737 312.72C239.737 325.993 236.473 335.893 229.947 342.42C223.42 348.873 214.987 352.1 204.647 352.1ZM204.757 294.13C201.237 294.13 198.267 295.743 195.847 298.97C193.5 302.197 192.327 306.743 192.327 312.61C192.327 318.403 193.463 322.877 195.737 326.03C198.01 329.11 200.98 330.65 204.647 330.65C208.387 330.65 211.393 329.073 213.667 325.92C216.013 322.767 217.187 318.257 217.187 312.39C217.187 306.523 215.977 302.013 213.557 298.86C211.21 295.707 208.277 294.13 204.757 294.13ZM248.568 345.94V279.94C248.568 278.107 249.008 276.677 249.888 275.65C250.842 274.55 252.052 274 253.518 274H271.888C283.548 274 292.385 276.933 298.398 282.8C304.485 288.667 307.528 297.907 307.528 310.52C307.528 337.507 296.015 351 272.988 351H254.178C250.438 351 248.568 349.313 248.568 345.94ZM269.688 294.9V327.79C269.688 329.33 269.798 330.32 270.018 330.76C270.238 331.127 270.898 331.31 271.998 331.31C276.032 331.31 279.075 329.807 281.128 326.8C283.255 323.793 284.318 318.807 284.318 311.84C284.318 304.8 283.218 300.217 281.018 298.09C278.892 295.963 275.482 294.9 270.788 294.9H269.688ZM319.212 324.16C320.605 325.26 322.988 326.763 326.362 328.67C329.808 330.577 333.072 331.53 336.152 331.53C339.305 331.53 340.882 330.32 340.882 327.9C340.882 326.8 340.442 325.847 339.562 325.04C338.682 324.16 337.068 323.17 334.722 322.07C332.375 320.97 330.615 320.127 329.442 319.54C328.268 318.88 326.692 317.853 324.712 316.46C322.805 314.993 321.338 313.49 320.312 311.95C317.378 307.77 315.912 302.453 315.912 296C315.912 289.547 318.295 284.12 323.062 279.72C327.902 275.247 334.208 273.01 341.982 273.01C347.262 273.01 352.138 273.597 356.612 274.77C361.085 275.87 363.395 277.337 363.542 279.17C363.542 279.39 363.542 279.61 363.542 279.83C363.542 282.397 362.735 285.66 361.122 289.62C359.508 293.507 358.372 295.67 357.712 296.11C353.018 293.69 348.802 292.48 345.062 292.48C341.395 292.48 339.562 293.8 339.562 296.44C339.562 298.053 340.918 299.483 343.632 300.73C344.218 301.023 345.062 301.427 346.162 301.94C347.262 302.453 348.508 303.077 349.902 303.81C351.368 304.47 352.908 305.35 354.522 306.45C356.208 307.477 358.005 308.87 359.912 310.63C363.798 314.297 365.742 319.137 365.742 325.15C365.742 332.997 363.578 339.413 359.252 344.4C354.925 349.387 348.252 351.953 339.232 352.1C334.832 352.1 330.835 351.733 327.242 351C323.722 350.267 320.642 348.837 318.002 346.71C315.362 344.583 314.042 342.017 314.042 339.01C314.042 336.003 314.592 333.033 315.692 330.1C316.792 327.093 317.965 325.113 319.212 324.16Z" fill="black"/>
<path d="M100 1H400V-1H100V1ZM499 100V400H501V100H499ZM400 499H100V501H400V499ZM1 400V100H-1V400H1ZM100 499C45.3238 499 1 454.676 1 400H-1C-1 455.781 44.2192 501 100 501V499ZM499 400C499 454.676 454.676 499 400 499V501C455.781 501 501 455.781 501 400H499ZM400 1C454.676 1 499 45.3238 499 100H501C501 44.2192 455.781 -1 400 -1V1ZM100 -1C44.2192 -1 -1 44.2192 -1 100H1C1 45.3238 45.3238 1 100 1V-1Z" fill="white" fill-opacity="0.1"/>
</svg>
