<svg xmlns="http://www.w3.org/2000/svg" version="1.1" xmlns:xlink="http://www.w3.org/1999/xlink" xmlns:svgjs="http://svgjs.com/svgjs" width="512" height="512" x="0" y="0" viewBox="0 0 490 490" style="enable-background:new 0 0 512 512" xml:space="preserve" class=""><g><path d="M490 245c0 135.31-109.69 245-245 245-71.33 0-135.54-30.48-180.31-79.13a246.05 246.05 0 0 1-31.03-41.85C12.27 332.64 0 290.25 0 245 0 109.69 109.69 0 245 0c45.26 0 87.65 12.27 124.02 33.67a244.914 244.914 0 0 1 41.84 31.03C459.51 109.45 490 173.67 490 245z" style="" fill="#f0cd00" data-original="#f0cd00"></path><path d="M490 245c0 132.26-104.79 240.04-235.88 244.83C123.03 485.04 18.24 377.26 18.24 245S123.03 4.96 254.12.17C385.21 4.96 490 112.74 490 245z" style="" fill="#ffde50" data-original="#ffde50" class=""></path><path d="M410.86 64.7 64.69 410.87a246.05 246.05 0 0 1-31.03-41.85L369.02 33.67a244.914 244.914 0 0 1 41.84 31.03zM473.1 155.43 155.42 473.11a244.67 244.67 0 0 1-62.03-35.64L437.47 93.39a244.227 244.227 0 0 1 35.63 62.04z" style="" fill="#ffea94" data-original="#ffea94" class=""></path><path d="M435.38 245c0 105.14-85.24 190.38-190.38 190.38-36.62 0-70.82-10.34-99.85-28.26a190.856 190.856 0 0 1-34.77-27.51 190.677 190.677 0 0 1-21.02-24.94 189.778 189.778 0 0 1-21.5-39.78c-8.28-20.95-12.94-43.73-13.22-67.55-.02-.78-.02-1.56-.02-2.34 0-105.14 85.23-190.38 190.38-190.38.78 0 1.57 0 2.35.02 23.82.28 46.59 4.95 67.54 13.22a190.24 190.24 0 0 1 39.78 21.5c8.91 6.3 17.25 13.33 24.94 21.02a190.515 190.515 0 0 1 27.51 34.77c17.92 29.03 28.26 63.23 28.26 99.85z" style="" fill="#faa300" data-original="#faa300" class=""></path><path d="M379.61 110.38 110.38 379.61a190.677 190.677 0 0 1-21.02-24.94 189.778 189.778 0 0 1-21.5-39.78c-8.28-20.95-12.94-43.73-13.22-67.55-.02-.78-.02-1.56-.02-2.34 0-105.14 85.23-190.38 190.38-190.38.78 0 1.57 0 2.35.02 23.82.28 46.59 4.95 67.54 13.22a190.24 190.24 0 0 1 39.78 21.5c8.91 6.3 17.25 13.33 24.94 21.02z" style="" fill="#ffbd00" data-original="#ffbd00" class=""></path><path d="M435.375 245c0 105.14-85.24 190.38-190.38 190.38-3.61 0-7.19-.1-10.75-.3 100.14-5.57 179.62-88.55 179.62-190.08s-79.48-184.51-179.62-190.08c3.56-.2 7.14-.3 10.75-.3 105.14 0 190.38 85.24 190.38 190.38z" style="" fill="#f68e00" data-original="#f68e00" class=""></path><path d="M320.634 186.7h-33.339a80.436 80.436 0 0 0-8.65-20.931h41.989c11.046 0 20-8.954 20-20s-8.954-20-20-20H131.68c-11.046 0-20 8.954-20 20s8.954 20 20 20h77.19c15.308 0 28.672 8.453 35.692 20.931H131.68c-11.046 0-20 8.954-20 20s8.954 20 20 20h112.882c-7.02 12.478-20.384 20.93-35.691 20.93h-77.19a19.999 19.999 0 0 0-14.557 33.715l108.769 115.451a19.943 19.943 0 0 0 14.561 6.285c4.919 0 9.848-1.804 13.711-5.443 8.04-7.574 8.416-20.232.842-28.272L178 287.63h30.87c37.724 0 69.498-25.947 78.425-60.93h33.339c11.046 0 20-8.954 20-20s-8.954-20-20-20z" style="" fill="#f68e00" data-original="#f68e00" class=""></path><path d="M345.635 186.7h-33.339a80.436 80.436 0 0 0-8.65-20.931h41.989c11.046 0 20-8.954 20-20s-8.954-20-20-20H156.682c-11.046 0-20 8.954-20 20s8.954 20 20 20h77.19c15.308 0 28.672 8.453 35.692 20.931H156.682c-11.046 0-20 8.954-20 20s8.954 20 20 20h112.882c-7.02 12.478-20.384 20.93-35.691 20.93h-77.19a19.999 19.999 0 0 0-14.557 33.715l108.769 115.451a19.943 19.943 0 0 0 14.561 6.285c4.919 0 9.848-1.804 13.711-5.443 8.04-7.574 8.417-20.232.842-28.272l-77.005-81.736h30.87c37.724 0 69.498-25.947 78.425-60.93h33.339c11.046 0 20-8.954 20-20s-8.957-20-20.003-20z" style="" fill="#ffea94" data-original="#ffea94" class=""></path></g></svg>