<svg xmlns="http://www.w3.org/2000/svg" version="1.1" xmlns:xlink="http://www.w3.org/1999/xlink" xmlns:svgjs="http://svgjs.com/svgjs" width="512" height="512" x="0" y="0" viewBox="0 0 64 64" style="enable-background:new 0 0 512 512" xml:space="preserve" class=""><g><rect width="24" height="52" x="22" y="6" fill="#e6ecff" rx="1" data-original="#e6ecff" class=""></rect><path fill="#4294ff" d="m63.707 31.293-9-9a1 1 0 0 0-1.414 0l-3 3a1 1 0 0 0 0 1.414L52.586 29H32a1 1 0 0 0-1 1v4a1 1 0 0 0 1 1h20.586l-2.293 2.293a1 1 0 0 0 0 1.414l3 3a1 1 0 0 0 1.414 0l9-9a1 1 0 0 0 0-1.414zM23.586.19a1.002 1.002 0 0 0-.9-.14l-22 7.267a1 1 0 0 0-.686.95v47.466a1 1 0 0 0 .686.95l22 7.267A1 1 0 0 0 24 63V1a1.001 1.001 0 0 0-.414-.81z" data-original="#4294ff"></path><circle cx="17" cy="32" r="3" fill="#376cfb" data-original="#376cfb"></circle></g></svg>