<svg xmlns="http://www.w3.org/2000/svg" version="1.1" xmlns:xlink="http://www.w3.org/1999/xlink" xmlns:svgjs="http://svgjs.com/svgjs" width="512" height="512" x="0" y="0" viewBox="0 0 24 24" style="enable-background:new 0 0 512 512" xml:space="preserve" class=""><g><path fill="#ffffff" d="m23.363 8.584-7.378-1.127L12.678.413c-.247-.526-1.11-.526-1.357 0L8.015 7.457.637 8.584a.75.75 0 0 0-.423 1.265l5.36 5.494-1.267 7.767a.75.75 0 0 0 1.103.777L12 20.245l6.59 3.643a.75.75 0 0 0 1.103-.777l-1.267-7.767 5.36-5.494a.75.75 0 0 0-.423-1.266z" data-original="#ffc107"></path></g></svg>