<svg width="500" height="500" viewBox="0 0 500 500" fill="none" xmlns="http://www.w3.org/2000/svg">
<rect width="500" height="500" fill="#00C853"/>
<path d="M0 2C0 0.895435 0.895431 0 2 0H498C499.105 0 500 0.895431 500 2V498C500 499.105 499.105 500 498 500H2C0.895435 500 0 499.105 0 498V2Z" fill="#06C167"/>
<path d="M22.88 189.28C24.5267 190.58 27.3433 192.357 31.33 194.61C35.4033 196.863 39.26 197.99 42.9 197.99C46.6267 197.99 48.49 196.56 48.49 193.7C48.49 192.4 47.97 191.273 46.93 190.32C45.89 189.28 43.9833 188.11 41.21 186.81C38.4367 185.51 36.3567 184.513 34.97 183.82C33.5833 183.04 31.72 181.827 29.38 180.18C27.1267 178.447 25.3933 176.67 24.18 174.85C20.7133 169.91 18.98 163.627 18.98 156C18.98 148.373 21.7967 141.96 27.43 136.76C33.15 131.473 40.6033 128.83 49.79 128.83C56.03 128.83 61.7933 129.523 67.08 130.91C72.3667 132.21 75.0967 133.943 75.27 136.11C75.27 136.37 75.27 136.63 75.27 136.89C75.27 139.923 74.3167 143.78 72.41 148.46C70.5033 153.053 69.16 155.61 68.38 156.13C62.8333 153.27 57.85 151.84 53.43 151.84C49.0967 151.84 46.93 153.4 46.93 156.52C46.93 158.427 48.5333 160.117 51.74 161.59C52.4333 161.937 53.43 162.413 54.73 163.02C56.03 163.627 57.5033 164.363 59.15 165.23C60.8833 166.01 62.7033 167.05 64.61 168.35C66.6033 169.563 68.7267 171.21 70.98 173.29C75.5733 177.623 77.87 183.343 77.87 190.45C77.87 199.723 75.3133 207.307 70.2 213.2C65.0867 219.093 57.2 222.127 46.54 222.3C41.34 222.3 36.6167 221.867 32.37 221C28.21 220.133 24.57 218.443 21.45 215.93C18.33 213.417 16.77 210.383 16.77 206.83C16.77 203.277 17.42 199.767 18.72 196.3C20.02 192.747 21.4067 190.407 22.88 189.28ZM127.693 218.92C127.693 220.653 123.403 221.52 114.823 221.52C106.243 221.52 101.953 220.653 101.953 218.92V153.66H86.3525C84.8792 153.66 83.8392 151.667 83.2325 147.68C82.9725 145.773 82.8425 143.823 82.8425 141.83C82.8425 139.837 82.9725 137.887 83.2325 135.98C83.8392 131.993 84.8792 130 86.3525 130H142.903C144.376 130 145.416 131.993 146.023 135.98C146.283 137.887 146.413 139.837 146.413 141.83C146.413 143.823 146.283 145.773 146.023 147.68C145.416 151.667 144.376 153.66 142.903 153.66H127.693V218.92ZM178.646 219.18C178.646 220.567 174.53 221.26 166.296 221.26C157.976 221.26 153.816 220.61 153.816 219.31V134.55C153.816 131.517 155.42 130 158.626 130H183.456C206.25 130 217.646 138.883 217.646 156.65C217.646 162.023 216.606 166.92 214.526 171.34C212.446 175.673 209.5 179.14 205.686 181.74L222.066 209.04C221.373 211.12 219.12 213.503 215.306 216.19C210.106 219.917 205.816 221.78 202.436 221.78C199.056 221.78 196.543 220.567 194.896 218.14L182.676 189.67H178.646V219.18ZM178.646 153.01V172.51H179.296C187.53 172.51 191.646 169.087 191.646 162.24C191.646 159.12 190.823 156.823 189.176 155.35C187.616 153.79 185.016 153.01 181.376 153.01H178.646ZM272.746 166.14C274.393 166.14 275.216 169.173 275.216 175.24C275.216 177.06 274.999 179.227 274.566 181.74C274.219 184.167 273.526 185.38 272.486 185.38H255.976V198.38H279.896C281.369 198.38 282.366 200.287 282.886 204.1C283.146 205.747 283.276 207.523 283.276 209.43C283.276 211.25 283.016 213.633 282.496 216.58C281.976 219.527 281.109 221 279.896 221H235.436C232.143 221 230.496 219.657 230.496 216.97V133.38C230.496 131.127 231.493 130 233.486 130H280.026C281.846 130 282.756 133.857 282.756 141.57C282.756 149.197 281.846 153.01 280.026 153.01H255.976V166.14H272.746ZM336.857 166.14C338.504 166.14 339.327 169.173 339.327 175.24C339.327 177.06 339.111 179.227 338.677 181.74C338.331 184.167 337.637 185.38 336.597 185.38H320.087V198.38H344.007C345.481 198.38 346.477 200.287 346.997 204.1C347.257 205.747 347.387 207.523 347.387 209.43C347.387 211.25 347.127 213.633 346.607 216.58C346.087 219.527 345.221 221 344.007 221H299.547C296.254 221 294.607 219.657 294.607 216.97V133.38C294.607 131.127 295.604 130 297.597 130H344.137C345.957 130 346.867 133.857 346.867 141.57C346.867 149.197 345.957 153.01 344.137 153.01H320.087V166.14H336.857ZM397.849 218.92C397.849 220.653 393.559 221.52 384.979 221.52C376.399 221.52 372.109 220.653 372.109 218.92V153.66H356.509C355.035 153.66 353.995 151.667 353.389 147.68C353.129 145.773 352.999 143.823 352.999 141.83C352.999 139.837 353.129 137.887 353.389 135.98C353.995 131.993 355.035 130 356.509 130H413.059C414.532 130 415.572 131.993 416.179 135.98C416.439 137.887 416.569 139.837 416.569 141.83C416.569 143.823 416.439 145.773 416.179 147.68C415.572 151.667 414.532 153.66 413.059 153.66H397.849V218.92ZM427.353 189.28C428.999 190.58 431.816 192.357 435.803 194.61C439.876 196.863 443.733 197.99 447.373 197.99C451.099 197.99 452.963 196.56 452.963 193.7C452.963 192.4 452.443 191.273 451.403 190.32C450.363 189.28 448.456 188.11 445.683 186.81C442.909 185.51 440.829 184.513 439.443 183.82C438.056 183.04 436.193 181.827 433.853 180.18C431.599 178.447 429.866 176.67 428.653 174.85C425.186 169.91 423.453 163.627 423.453 156C423.453 148.373 426.269 141.96 431.903 136.76C437.623 131.473 445.076 128.83 454.263 128.83C460.503 128.83 466.266 129.523 471.553 130.91C476.839 132.21 479.569 133.943 479.743 136.11C479.743 136.37 479.743 136.63 479.743 136.89C479.743 139.923 478.789 143.78 476.883 148.46C474.976 153.053 473.633 155.61 472.853 156.13C467.306 153.27 462.323 151.84 457.903 151.84C453.569 151.84 451.403 153.4 451.403 156.52C451.403 158.427 453.006 160.117 456.213 161.59C456.906 161.937 457.903 162.413 459.203 163.02C460.503 163.627 461.976 164.363 463.623 165.23C465.356 166.01 467.176 167.05 469.083 168.35C471.076 169.563 473.199 171.21 475.453 173.29C480.046 177.623 482.343 183.343 482.343 190.45C482.343 199.723 479.786 207.307 474.673 213.2C469.559 219.093 461.673 222.127 451.013 222.3C445.813 222.3 441.089 221.867 436.843 221C432.683 220.133 429.043 218.443 425.923 215.93C422.803 213.417 421.243 210.383 421.243 206.83C421.243 203.277 421.893 199.767 423.193 196.3C424.493 192.747 425.879 190.407 427.353 189.28ZM68.12 279C69.5933 279 70.33 282.857 70.33 290.57C70.33 298.197 69.5933 302.01 68.12 302.01H44.33V316.83H60.19C61.6633 316.83 62.4 320.21 62.4 326.97C62.4 333.643 61.7067 336.98 60.32 336.98H44.33V368.31C44.33 369.523 42.6833 370.303 39.39 370.65C36.1833 371.083 33.4967 371.3 31.33 371.3L25.22 371.04C20.9733 370.52 18.85 369.653 18.85 368.44V282.38C18.85 280.993 19.11 280.083 19.63 279.65C20.2367 279.217 21.1033 279 22.23 279H68.12ZM119.428 371.3C107.295 371.3 97.3717 367.313 89.6584 359.34C82.0317 351.367 78.2184 339.753 78.2184 324.5C78.2184 309.16 82.075 297.547 89.7884 289.66C97.5884 281.773 107.598 277.83 119.818 277.83C132.125 277.83 142.048 281.73 149.588 289.53C157.128 297.243 160.898 308.987 160.898 324.76C160.898 340.447 157.042 352.147 149.328 359.86C141.615 367.487 131.648 371.3 119.428 371.3ZM119.558 302.79C115.398 302.79 111.888 304.697 109.028 308.51C106.255 312.323 104.868 317.697 104.868 324.63C104.868 331.477 106.212 336.763 108.898 340.49C111.585 344.13 115.095 345.95 119.428 345.95C123.848 345.95 127.402 344.087 130.088 340.36C132.862 336.633 134.248 331.303 134.248 324.37C134.248 317.437 132.818 312.107 129.958 308.38C127.185 304.653 123.718 302.79 119.558 302.79ZM209.946 371.3C197.813 371.3 187.889 367.313 180.176 359.34C172.549 351.367 168.736 339.753 168.736 324.5C168.736 309.16 172.593 297.547 180.306 289.66C188.106 281.773 198.116 277.83 210.336 277.83C222.643 277.83 232.566 281.73 240.106 289.53C247.646 297.243 251.416 308.987 251.416 324.76C251.416 340.447 247.559 352.147 239.846 359.86C232.133 367.487 222.166 371.3 209.946 371.3ZM210.076 302.79C205.916 302.79 202.406 304.697 199.546 308.51C196.773 312.323 195.386 317.697 195.386 324.63C195.386 331.477 196.729 336.763 199.416 340.49C202.103 344.13 205.613 345.95 209.946 345.95C214.366 345.95 217.919 344.087 220.606 340.36C223.379 336.633 224.766 331.303 224.766 324.37C224.766 317.437 223.336 312.107 220.476 308.38C217.703 304.653 214.236 302.79 210.076 302.79ZM261.854 364.02V286.02C261.854 283.853 262.374 282.163 263.414 280.95C264.54 279.65 265.97 279 267.704 279H289.414C303.194 279 313.637 282.467 320.744 289.4C327.937 296.333 331.534 307.253 331.534 322.16C331.534 354.053 317.927 370 290.714 370H268.484C264.064 370 261.854 368.007 261.854 364.02ZM286.814 303.7V342.57C286.814 344.39 286.944 345.56 287.204 346.08C287.464 346.513 288.244 346.73 289.544 346.73C294.31 346.73 297.907 344.953 300.334 341.4C302.847 337.847 304.104 331.953 304.104 323.72C304.104 315.4 302.804 309.983 300.204 307.47C297.69 304.957 293.66 303.7 288.114 303.7H286.814ZM345.341 338.28C346.988 339.58 349.804 341.357 353.791 343.61C357.864 345.863 361.721 346.99 365.361 346.99C369.088 346.99 370.951 345.56 370.951 342.7C370.951 341.4 370.431 340.273 369.391 339.32C368.351 338.28 366.444 337.11 363.671 335.81C360.898 334.51 358.818 333.513 357.431 332.82C356.044 332.04 354.181 330.827 351.841 329.18C349.588 327.447 347.854 325.67 346.641 323.85C343.174 318.91 341.441 312.627 341.441 305C341.441 297.373 344.258 290.96 349.891 285.76C355.611 280.473 363.064 277.83 372.251 277.83C378.491 277.83 384.254 278.523 389.541 279.91C394.828 281.21 397.558 282.943 397.731 285.11C397.731 285.37 397.731 285.63 397.731 285.89C397.731 288.923 396.778 292.78 394.871 297.46C392.964 302.053 391.621 304.61 390.841 305.13C385.294 302.27 380.311 300.84 375.891 300.84C371.558 300.84 369.391 302.4 369.391 305.52C369.391 307.427 370.994 309.117 374.201 310.59C374.894 310.937 375.891 311.413 377.191 312.02C378.491 312.627 379.964 313.363 381.611 314.23C383.344 315.01 385.164 316.05 387.071 317.35C389.064 318.563 391.188 320.21 393.441 322.29C398.034 326.623 400.331 332.343 400.331 339.45C400.331 348.723 397.774 356.307 392.661 362.2C387.548 368.093 379.661 371.127 369.001 371.3C363.801 371.3 359.078 370.867 354.831 370C350.671 369.133 347.031 367.443 343.911 364.93C340.791 362.417 339.231 359.383 339.231 355.83C339.231 352.277 339.881 348.767 341.181 345.3C342.481 341.747 343.868 339.407 345.341 338.28Z" fill="black"/>
<path d="M2 1H498V-1H2V1ZM499 2V498H501V2H499ZM498 499H2V501H498V499ZM1 498V2H-1V498H1ZM2 499C1.44772 499 1 498.552 1 498H-1C-1 499.657 0.343152 501 2 501V499ZM499 498C499 498.552 498.552 499 498 499V501C499.657 501 501 499.657 501 498H499ZM498 1C498.552 1 499 1.44772 499 2H501C501 0.343143 499.657 -1 498 -1V1ZM2 -1C0.343143 -1 -1 0.343152 -1 2H1C1 1.44772 1.44772 1 2 1V-1Z" fill="white" fill-opacity="0.1"/>
</svg>
