<svg xmlns="http://www.w3.org/2000/svg" version="1.1" xmlns:xlink="http://www.w3.org/1999/xlink" xmlns:svgjs="http://svgjs.com/svgjs" width="512" height="512" x="0" y="0" viewBox="0 0 64 64" style="enable-background:new 0 0 512 512" xml:space="preserve" class=""><g><linearGradient id="a" x1="3.999" x2="59.999" y1="31.931" y2="31.931" gradientUnits="userSpaceOnUse"><stop offset="0" stop-color="#ffde00"></stop><stop offset="1" stop-color="#fd5900"></stop></linearGradient><path fill="url(#a)" d="M59.6 36.59a1.003 1.003 0 0 1-1.4-.2L57 34.8C52.38 67.881 5.162 65.577 4 32a26.574 26.574 0 0 1 45.36-18.79.997.997 0 0 1-1.41 1.41C32.663-.787 5.944 10.267 6 32c.961 30.626 43.992 33.293 48.92 3.28l-.83 1.11a1 1 0 0 1-1.6-1.2l2.86-3.79a1.04 1.04 0 0 1 1.6 0l2.85 3.79a1.004 1.004 0 0 1-.2 1.4zm-44.84 4.68a5.048 5.048 0 0 0 4.81 6.56h22.86a5.103 5.103 0 0 0 4.14-2.13 4.85 4.85 0 0 0 .67-4.43 17.168 17.168 0 0 0-11.39-10.9A9.745 9.745 0 0 0 31 12.17c-9.996.058-13.393 13.294-4.85 18.2a17.168 17.168 0 0 0-11.39 10.9z" data-original="url(#a)"></path></g></svg>