<svg xmlns="http://www.w3.org/2000/svg" version="1.1" xmlns:xlink="http://www.w3.org/1999/xlink" xmlns:svgjs="http://svgjs.com/svgjs" width="512" height="512" x="0" y="0" viewBox="0 0 512 512" style="enable-background:new 0 0 512 512" xml:space="preserve" class=""><g><path d="M156.674 304.188c0 31.519 25.642 57.161 57.161 57.161h84.329c31.519 0 57.161-25.643 57.161-57.162 0-39.222-22.854-73.204-55.943-89.337 8.578-10.001 13.778-22.979 13.778-37.157 0-31.519-25.642-57.161-57.161-57.161s-57.161 25.642-57.161 57.161c0 14.178 5.2 27.156 13.778 37.157-33.088 16.134-55.942 50.116-55.942 89.338z" fill="#42a5f5" data-original="#000000" class=""></path><path d="M88.758 104.076c40.58-44.672 96.128-70.867 156.41-73.761 60.284-2.897 118.085 17.862 162.756 58.442l9.309 8.456-32.744 1.572c-8.273.397-14.658 7.425-14.26 15.698.385 8.028 7.014 14.278 14.967 14.278.242 0 .486-.006.73-.018l68.907-3.307c8.273-.397 14.658-7.425 14.26-15.698l-3.307-68.908c-.396-8.273-7.439-14.655-15.697-14.26-8.273.397-14.658 7.425-14.26 15.698l1.571 32.745-9.309-8.457C377.489 20.59 312.012-2.915 243.73.357c-68.284 3.278-131.206 32.95-177.172 83.552-58.42 64.309-80.15 152.946-58.13 237.103 1.764 6.74 7.843 11.204 14.498 11.204 1.257 0 2.534-.159 3.806-.492 8.013-2.097 12.808-10.292 10.712-18.305C18 239.111 37.183 160.851 88.758 104.076zM503.572 190.987c-2.097-8.012-10.294-12.811-18.304-10.712-8.013 2.097-12.808 10.292-10.712 18.305 19.445 74.309.262 152.568-51.313 209.343-40.58 44.672-96.128 70.867-156.411 73.761-3.708.178-7.4.267-11.087.267-56.249-.002-109.744-20.625-151.668-58.709l-9.309-8.456 32.744-1.572c8.273-.397 14.658-7.425 14.26-15.698-.396-8.273-7.436-14.663-15.697-14.26l-68.907 3.307c-8.273.397-14.658 7.425-14.26 15.698l3.307 68.908c.385 8.028 7.014 14.278 14.967 14.278.242 0 .486-.006.73-.018 8.273-.397 14.658-7.425 14.26-15.698L74.6 436.986l9.309 8.457c47.492 43.142 108.081 66.503 171.801 66.502 4.173 0 8.363-.101 12.559-.302 68.284-3.278 131.206-32.95 177.172-83.552 58.421-64.31 80.151-152.947 58.131-237.104z" fill="#42a5f5" data-original="#000000" class=""></path></g></svg>