<svg xmlns="http://www.w3.org/2000/svg" version="1.1" xmlns:xlink="http://www.w3.org/1999/xlink" xmlns:svgjs="http://svgjs.com/svgjs" width="512" height="512" x="0" y="0" viewBox="0 0 512 512" style="enable-background:new 0 0 512 512" xml:space="preserve" class=""><g><path d="M428.169 161.675v60.324a7.79 7.79 0 0 1-4.107 6.862 7.632 7.632 0 0 1-3.691.936 7.794 7.794 0 0 1-7.798-7.798v-60.324a7.794 7.794 0 0 1 7.798-7.798c1.341 0 2.589.333 3.691.936a7.785 7.785 0 0 1 4.107 6.862z" style="" fill="#e0ccbd" data-original="#e0ccbd"></path><path d="M428.169 161.675v60.324a7.79 7.79 0 0 1-4.107 6.862 7.79 7.79 0 0 1-4.107-6.862v-60.324a7.79 7.79 0 0 1 4.107-6.862 7.785 7.785 0 0 1 4.107 6.862z" style="" fill="#fce6d4" data-original="#fce6d4"></path><path d="M99.427 161.675v60.324a7.79 7.79 0 0 1-4.107 6.862 7.632 7.632 0 0 1-3.691.936 7.794 7.794 0 0 1-7.798-7.798v-60.324a7.794 7.794 0 0 1 7.798-7.798c1.341 0 2.589.333 3.691.936a7.785 7.785 0 0 1 4.107 6.862z" style="" fill="#e0ccbd" data-original="#e0ccbd"></path><path d="M99.427 161.675v60.324a7.79 7.79 0 0 1-4.107 6.862 7.79 7.79 0 0 1-4.107-6.862v-60.324a7.79 7.79 0 0 1 4.107-6.862 7.785 7.785 0 0 1 4.107 6.862z" style="" fill="#fce6d4" data-original="#fce6d4"></path><path d="M24.66 297.885a7.798 7.798 0 0 1-7.798-7.798v-31.719c0-4.307 3.491-7.798 7.798-7.798s7.798 3.491 7.798 7.798v31.718a7.798 7.798 0 0 1-7.798 7.799zM487.341 297.885a7.798 7.798 0 0 1-7.798-7.798v-31.719a7.798 7.798 0 0 1 15.596 0v31.718a7.8 7.8 0 0 1-7.798 7.799z" style="" fill="#d3b8a1" data-original="#d3b8a1"></path><path d="M377.853 227.178h85.049v63.631h-85.049z" style="" fill="#f2d6bd" data-original="#f2d6bd" class=""></path><path d="M377.853 227.178h21.382v63.631h-21.382z" style="" fill="#d3b8a1" data-original="#d3b8a1"></path><path d="M465.174 232.563a43.15 43.15 0 0 1-.572 6.165h-88.48a45.404 45.404 0 0 1-.572-7.184c0-12.518 5.136-23.841 13.423-31.971a46.015 46.015 0 0 1 6.28-5.147 133.588 133.588 0 0 0 6.103-4.388c6.082-4.616 11.79-9.701 17.186-15.107l1.83-1.82 1.82 1.82c5.417 5.417 11.219 10.387 17.28 15.024a210.775 210.775 0 0 0 6.789 5.001 44.23 44.23 0 0 1 5.51 4.616c8.516 8.35 13.694 20.078 13.403 32.991z" style="" fill="#fce6d4" data-original="#fce6d4"></path><path d="m420.351 173.133-.863 1.799c-3.421 7.174-7.101 13.797-11.115 19.495-5.677 8.058-9.409 21.678-9.409 37.118 0 2.454.094 4.845.27 7.184h-23.113a45.404 45.404 0 0 1-.572-7.184c0-15.44 7.819-29.06 19.703-37.118 8.401-5.698 16.126-12.321 23.29-19.495l1.809-1.799z" style="" fill="#e0ccbd" data-original="#e0ccbd"></path><path d="M48.337 227.178h85.049v63.631H48.337z" style="" fill="#f2d6bd" data-original="#f2d6bd" class=""></path><path d="M48.337 227.178h21.382v63.631H48.337z" style="" fill="#d3b8a1" data-original="#d3b8a1"></path><path d="M135.657 232.563a43.15 43.15 0 0 1-.572 6.165h-88.48a45.404 45.404 0 0 1-.572-7.184c0-12.737 5.323-24.236 13.859-32.387a44.922 44.922 0 0 1 5.843-4.731 140.23 140.23 0 0 0 6.561-4.741c5.906-4.523 11.468-9.493 16.729-14.754l1.83-1.82 1.819 1.82c5.542 5.542 11.51 10.626 17.727 15.377 2.09 1.58 4.2 3.13 6.342 4.648a44.925 44.925 0 0 1 5.926 5.022c8.268 8.329 13.279 19.88 12.988 32.585z" style="" fill="#fce6d4" data-original="#fce6d4"></path><path d="m90.839 173.133-.863 1.799c-3.421 7.174-7.101 13.797-11.115 19.495-5.677 8.058-9.409 21.678-9.409 37.118 0 2.454.094 4.845.27 7.184H46.61a45.404 45.404 0 0 1-.572-7.184c0-15.44 7.819-29.06 19.703-37.118 8.401-5.698 16.126-12.321 23.29-19.495l1.808-1.799z" style="" fill="#e0ccbd" data-original="#e0ccbd"></path><path d="M474.026 246.528h-107.31a7.798 7.798 0 0 1 0-15.596h107.31a7.798 7.798 0 1 1 0 15.596z" style="" fill="#d3b8a1" data-original="#d3b8a1"></path><path d="M399.633 287.492a7.798 7.798 0 0 1-7.798-7.798v-14.948a7.798 7.798 0 0 1 15.596 0v14.948a7.798 7.798 0 0 1-7.798 7.798zM420.093 287.492a7.798 7.798 0 0 1-7.798-7.798v-14.948a7.798 7.798 0 0 1 15.596 0v14.948a7.798 7.798 0 0 1-7.798 7.798zM440.553 287.492a7.798 7.798 0 0 1-7.798-7.798v-14.948a7.798 7.798 0 0 1 15.596 0v14.948a7.798 7.798 0 0 1-7.798 7.798z" style="" fill="#9e8574" data-original="#9e8574"></path><path d="M451.772 199.573a.3.3 0 0 1-.052.073 41.009 41.009 0 0 1-31.347 14.535 41.027 41.027 0 0 1-31.337-14.525c-.021-.031-.042-.052-.062-.083a46.015 46.015 0 0 1 6.28-5.147 133.588 133.588 0 0 0 6.103-4.388 25.387 25.387 0 0 0 19.016 8.546c7.33 0 14.265-3.14 19.1-8.63a210.775 210.775 0 0 0 6.789 5.001 44.419 44.419 0 0 1 5.51 4.618z" style="" fill="#e0ccbd" data-original="#e0ccbd"></path><path d="M145.285 246.528H37.975a7.798 7.798 0 0 1 0-15.596h107.31a7.798 7.798 0 1 1 0 15.596z" style="" fill="#d3b8a1" data-original="#d3b8a1"></path><path d="M112.368 287.492a7.798 7.798 0 0 1-7.798-7.798v-14.948a7.798 7.798 0 0 1 15.596 0v14.948a7.799 7.799 0 0 1-7.798 7.798zM91.907 287.492a7.798 7.798 0 0 1-7.798-7.798v-14.948a7.798 7.798 0 0 1 15.596 0v14.948a7.797 7.797 0 0 1-7.798 7.798zM71.448 287.492a7.798 7.798 0 0 1-7.798-7.798v-14.948a7.798 7.798 0 0 1 15.596 0v14.948a7.799 7.799 0 0 1-7.798 7.798z" style="" fill="#9e8574" data-original="#9e8574"></path><path d="M122.671 199.979a40.96 40.96 0 0 1-31.046 14.202c-12.092 0-23.518-5.303-31.347-14.535a8.809 8.809 0 0 1-.385-.489 44.922 44.922 0 0 1 5.843-4.731 140.23 140.23 0 0 0 6.561-4.741 25.38 25.38 0 0 0 19.328 8.9 25.403 25.403 0 0 0 18.777-8.276c2.09 1.58 4.2 3.13 6.342 4.648a44.718 44.718 0 0 1 5.927 5.022zM264.218 7.798v60.324a7.79 7.79 0 0 1-4.107 6.862 7.632 7.632 0 0 1-3.691.936 7.794 7.794 0 0 1-7.798-7.798V7.798A7.794 7.794 0 0 1 256.42 0c1.341 0 2.589.333 3.691.936a7.79 7.79 0 0 1 4.107 6.862z" style="" fill="#e0ccbd" data-original="#e0ccbd"></path><path d="M264.218 7.798v60.324a7.79 7.79 0 0 1-4.107 6.862 7.79 7.79 0 0 1-4.107-6.862V7.798a7.79 7.79 0 0 1 4.107-6.862 7.79 7.79 0 0 1 4.107 6.862z" style="" fill="#fce6d4" data-original="#fce6d4"></path><path d="M160.203 475.399H16.863v-195.71h478.275v195.71h-143.34" style="" fill="#f2d6bd" data-original="#f2d6bd" class=""></path><path d="M192.769 475.399h-41.13v-195.71h137.236v195.71h-41.13M28.394 475.399H16.863v-195.71h38.475v195.71H43.807" style="" fill="#d3b8a1" data-original="#d3b8a1"></path><path d="M467.531 331.688c0-21.274 13.803-25.341 13.803-25.341s13.803 4.067 13.803 25.341V373.202h-27.606V331.688zM375.739 331.688c0-21.274 20.743-25.341 20.743-25.341s20.743 4.067 20.743 25.341l-.001.028h.001v41.486H375.74v-41.486h.001l-.002-.028zM375.739 421.187c0-21.274 20.743-25.341 20.743-25.341s20.743 4.067 20.743 25.341l-.001.028h.001v41.486H375.74v-41.486h.001l-.002-.028zM467.531 421.187c0-21.274 13.803-25.341 13.803-25.341s13.803 4.067 13.803 25.341V462.701h-27.606V421.187zM44.47 331.688c0-21.274-13.803-25.341-13.803-25.341s-13.803 4.067-13.803 25.341V373.202H44.47V331.688zM136.262 331.688c0-21.274-20.742-25.341-20.742-25.341s-20.742 4.067-20.742 25.341l.001.028h-.001v41.486h41.486v-41.486h-.001c-.002-.01-.001-.019-.001-.028zM136.262 421.187c0-21.274-20.742-25.341-20.742-25.341s-20.742 4.067-20.742 25.341l.001.028h-.001v41.486h41.486v-41.486h-.001c-.002-.009-.001-.018-.001-.028zM44.47 421.187c0-21.274-13.803-25.341-13.803-25.341s-13.803 4.067-13.803 25.341V462.701H44.47V421.187z" style="" fill="#bca28f" data-original="#bca28f"></path><path d="M353.914 170.721c-.364 16.812-5.053 32.647-12.986 46.413v49.553L171.08 253.763v-36.629c-7.933-13.766-12.622-29.601-12.996-46.413-.759-33.915 15.741-64.036 41.339-82.179a516.458 516.458 0 0 0 6.685-4.824c6.841-5.022 13.558-10.21 20.098-15.596 8.952-7.372 17.592-15.128 25.816-23.352l3.982-3.972 3.972 3.972c8.224 8.224 16.864 15.98 25.816 23.352 6.54 5.386 13.256 10.574 20.098 15.596a593.706 593.706 0 0 0 6.696 4.824c25.587 18.143 42.087 48.264 41.328 82.179z" style="" fill="#fce6d4" data-original="#fce6d4"></path><path d="M180.1 238.344h160.823v24.953H180.1z" style="" fill="#e0ccbd" data-original="#e0ccbd"></path><path d="M164.498 474.359V260.018c0-3.453 2.651-6.252 5.921-6.252h171.164c3.27 0 5.921 2.799 5.921 6.252v214.341" style="" fill="#fce6d4" data-original="#fce6d4"></path><path d="m256 40.798-2.163 3.972c-8.817 16.168-18.507 30.547-28.665 43.772-13.953 18.143-22.947 48.264-22.531 82.179.198 16.812 2.755 32.647 7.08 46.413v36.629h-38.646v-36.629c-7.933-13.766-12.622-29.601-12.986-46.413-.759-33.915 15.741-64.036 41.329-82.179 18.652-13.225 36.442-27.604 52.61-43.772L256 40.798z" style="" fill="#e0ccbd" data-original="#e0ccbd"></path><path d="M208.098 462.701v-94.535c0-49.131 47.902-58.521 47.902-58.521s47.902 9.391 47.902 58.521v94.535" style="" fill="#bca28f" data-original="#bca28f"></path><path d="M305.89 83.718h-99.781c6.841-5.022 13.558-10.21 20.098-15.596h59.586c6.539 5.386 13.255 10.574 20.097 15.596z" style="" fill="#e0ccbd" data-original="#e0ccbd"></path><path d="M325.931 487.356a7.798 7.798 0 0 1-7.798-7.798V287.011H193.868v192.547a7.798 7.798 0 0 1-15.596 0V279.213a7.798 7.798 0 0 1 7.798-7.798h139.861a7.798 7.798 0 0 1 7.798 7.798v200.345a7.798 7.798 0 0 1-7.798 7.798z" style="" fill="#bca28f" data-original="#bca28f"></path><path d="M1.27 504.79v-34.878a7.21 7.21 0 0 1 7.21-7.21h495.04a7.21 7.21 0 0 1 7.21 7.21v34.878a7.21 7.21 0 0 1-7.21 7.21H8.48a7.21 7.21 0 0 1-7.21-7.21z" style="" fill="#f2d6bd" data-original="#f2d6bd" class=""></path><path d="M36.62 504.79v-34.878a7.21 7.21 0 0 1 7.21-7.21H8.48a7.21 7.21 0 0 0-7.21 7.21v34.878A7.21 7.21 0 0 0 8.48 512h35.35a7.21 7.21 0 0 1-7.21-7.21z" style="" fill="#d3b8a1" data-original="#d3b8a1"></path></g></svg>