<svg xmlns="http://www.w3.org/2000/svg" version="1.1" xmlns:xlink="http://www.w3.org/1999/xlink" xmlns:svgjs="http://svgjs.com/svgjs" width="512" height="512" x="0" y="0" viewBox="0 0 510.019 510.019" style="enable-background:new 0 0 512 512" xml:space="preserve" class=""><g><linearGradient id="a"><stop offset="0" stop-color="#fef056"></stop><stop offset=".521" stop-color="#fbc56d"></stop><stop offset="1" stop-color="#c86d36"></stop></linearGradient><linearGradient xlink:href="#a" id="b" x1="168.843" x2="294.425" y1="222.376" y2="222.376" gradientUnits="userSpaceOnUse"></linearGradient><linearGradient xlink:href="#a" id="c" x1="73.331" x2="518.236" y1="358.383" y2="358.383" gradientUnits="userSpaceOnUse"></linearGradient><linearGradient xlink:href="#a" id="d" x1="-195.378" x2="457.201" y1="362.579" y2="362.579" gradientUnits="userSpaceOnUse"></linearGradient><linearGradient xlink:href="#a" id="e" x1="156.53" x2="524.068" y1="393.454" y2="393.454" gradientUnits="userSpaceOnUse"></linearGradient><linearGradient xlink:href="#a" id="f" x1="87.01" x2="322.987" y1="393.454" y2="393.454" gradientUnits="userSpaceOnUse"></linearGradient><linearGradient xlink:href="#a" id="g" x1="228.003" x2="422.662" y1="393.454" y2="393.454" gradientUnits="userSpaceOnUse"></linearGradient><linearGradient xlink:href="#a" id="h" x1="6.01" x2="870.343" y1="477.474" y2="477.474" gradientUnits="userSpaceOnUse"></linearGradient><linearGradient xlink:href="#a" id="i" x1="105.01" x2="252.225" y1="477.474" y2="477.474" gradientUnits="userSpaceOnUse"></linearGradient><linearGradient xlink:href="#a" id="j" x1="268.01" x2="511.349" y1="477.474" y2="477.474" gradientUnits="userSpaceOnUse"></linearGradient><linearGradient xlink:href="#a" id="k" x1="-145.38" x2="642.122" y1="496.103" y2="496.103" gradientUnits="userSpaceOnUse"></linearGradient><linearGradient xlink:href="#a" id="l" x1="304.01" x2="494.084" y1="496.103" y2="496.103" gradientUnits="userSpaceOnUse"></linearGradient><linearGradient xlink:href="#a" id="m" x1="174.51" x2="286.013" y1="453.889" y2="453.889" gradientUnits="userSpaceOnUse"></linearGradient><linearGradient xlink:href="#a" id="n" x1="288.321" x2="345.753" y1="453.889" y2="453.889" gradientUnits="userSpaceOnUse"></linearGradient><linearGradient xlink:href="#a" id="o" x1="215.404" x2="324.037" y1="424.833" y2="424.833" gradientUnits="userSpaceOnUse"></linearGradient><linearGradient id="p" x1="233.826" x2="291.931" y1="456.175" y2="456.175" gradientUnits="userSpaceOnUse"><stop offset="0" stop-color="#537983"></stop><stop offset=".593" stop-color="#554e56"></stop><stop offset="1" stop-color="#433f43"></stop></linearGradient><linearGradient xlink:href="#a" id="q" x1="207.227" x2="324.24" y1="106.864" y2="106.864" gradientUnits="userSpaceOnUse"></linearGradient><linearGradient xlink:href="#a" id="r" x1="5.597" x2="422.378" y1="106.864" y2="106.864" gradientUnits="userSpaceOnUse"></linearGradient><path fill="url(#b)" d="M222.84 190.206h64.339v64.339H222.84z" data-original="url(#b)"></path><path fill="url(#c)" d="m375.158 356.811-3.683-33.152c-6.577-59.201-58.432-102.501-116.465-102.501s-109.888 43.3-116.465 102.501l-3.683 33.152c-2.988 26.894-18.382 53.823-42.664 71.636-13.536 9.93-22.152 21.325-24.089 33.623-7.043 44.717 380.844 44.717 373.802 0-1.937-12.299-10.553-23.693-24.089-33.623-24.282-17.813-39.676-44.741-42.664-71.636z" data-original="url(#c)"></path><path fill="url(#d)" d="M441.91 462.07c-1.937-12.299-10.553-23.693-24.089-33.623-24.281-17.813-39.676-44.741-42.664-71.636l-3.683-33.152c-6.577-59.201-58.432-102.501-116.465-102.501-6.776 0-13.465.598-20.01 1.734 49.512 8.6 90.646 48.477 96.455 100.767l3.683 33.152c1.776 15.981 7.932 31.973 17.73 46.059H189.483c-2.463-3.068-13.041-10.881-13.041-10.881-.42-.28-.966-.28-1.386 0l-4.357 2.903a38.56 38.56 0 0 0-8.684 7.978h-44.883a108.855 108.855 0 0 1-24.183 25.011h46.834c7.321 0 13.255 5.931 13.252 13.251-.008 21.807-.019 62.868-.019 62.868h45.466v-75.271c0-.284-.02-.565-.026-.848h154.726c18.684 0 36.176 9.772 45.443 25.995 1.68 2.941 2.881 5.753 3.265 8.194 3.274 20.789-78.814 31.911-166.891 33.37 101.373 1.68 210.68-9.442 206.911-33.37z" data-original="url(#d)"></path><path fill="url(#e)" d="M407.208 393.454c0-7.675-6.222-13.897-13.897-13.897H116.708c-7.675 0-13.897 6.222-13.897 13.897s6.222 13.897 13.897 13.897h276.604c7.675 0 13.896-6.222 13.896-13.897z" data-original="url(#e)"></path><path fill="url(#f)" d="M252.692 379.557h-34.246c-4.029 0-8.006 1.051-11.455 3.132-8.248 4.976-14.448 10.607-18.271 16.614-1.706 2.681-5.225 3.391-7.866 1.625l-.054-.036-4.357-2.903c-.42-.28-.966-.28-1.386 0l-4.357 2.903a38.43 38.43 0 0 0-7.415 6.46h89.385c.024-9.791.035-19.24.022-27.795z" data-original="url(#f)"></path><path fill="url(#g)" d="M393.312 379.557h-27.794c7.675 0 13.897 6.222 13.897 13.897s-6.222 13.897-13.897 13.897h27.794c7.675 0 13.897-6.222 13.897-13.897s-6.222-13.897-13.897-13.897z" data-original="url(#g)"></path><path fill="url(#h)" d="M471.815 510H38.204c-10.959 0-19.842-8.884-19.842-19.842v-25.367c0-10.959 8.884-19.842 19.842-19.842h433.611c10.959 0 19.842 8.884 19.842 19.842v25.367c0 10.958-8.884 19.842-19.842 19.842z" data-original="url(#h)" class=""></path><path fill="url(#i)" d="M153.016 444.948V510h45.465v-65.052z" data-original="url(#i)"></path><path fill="url(#j)" d="M471.815 444.948h-40.02c10.958 0 19.842 8.884 19.842 19.842v25.367c0 10.958-8.884 19.842-19.842 19.842h40.02c10.958 0 19.842-8.884 19.842-19.842V464.79c0-10.958-8.884-19.842-19.842-19.842z" data-original="url(#j)"></path><path fill="url(#k)" d="M510.01 496.103c0-7.686-6.23-13.916-13.916-13.916H13.926c-7.686 0-13.916 6.23-13.916 13.916s6.23 13.916 13.916 13.916h482.168c7.685 0 13.916-6.23 13.916-13.916z" data-original="url(#k)"></path><path fill="url(#l)" d="M496.093 482.187h-27.832c7.686 0 13.916 6.23 13.916 13.916s-6.23 13.916-13.916 13.916h27.832c7.686 0 13.916-6.23 13.916-13.916s-6.23-13.916-13.916-13.916z" data-original="url(#l)"></path><path fill="url(#m)" d="m205.81 400.891-4.357-2.903a1.241 1.241 0 0 0-1.386 0l-4.357 2.903c-11.008 7.333-17.683 20.106-17.683 33.837V510h45.466v-75.271c0-13.732-6.675-26.505-17.683-33.838z" data-original="url(#m)"></path><path fill="url(#n)" d="m314.31 400.891-4.357-2.903a1.241 1.241 0 0 0-1.386 0l-4.357 2.903c-11.008 7.333-17.683 20.106-17.683 33.837V510h45.466v-75.271c0-13.732-6.675-26.505-17.683-33.838z" data-original="url(#n)"></path><path fill="url(#o)" d="M273.695 375.107c-6.165-3.881-10.759-9.842-12.694-16.865-1.665-6.042-2.953-12.133-3.901-17.282-.317-1.724-3.864-1.724-4.182 0-.948 5.149-2.236 11.241-3.901 17.282-1.935 7.024-6.529 12.984-12.694 16.865-15.321 9.645-24.314 23.614-24.314 38.459V510h86v-96.434c.001-14.846-8.993-28.814-24.314-38.459z" data-original="url(#o)"></path><path fill="url(#p)" d="m254.309 402.552-4.408 2.784a38.391 38.391 0 0 0-17.89 32.459V510h46v-72.204a38.391 38.391 0 0 0-17.89-32.459l-4.408-2.784a1.316 1.316 0 0 0-1.404-.001z" data-original="url(#p)"></path><path fill="url(#q)" d="M248.154 6.029c-7.141 55.194-20.169 133.675-40.516 179.065-6.026 13.443 3.718 28.633 18.45 28.633h57.841c14.732 0 24.477-15.19 18.45-28.633-20.347-45.39-33.375-123.87-40.515-179.065-1.039-8.039-12.67-8.039-13.71 0z" data-original="url(#q)"></path><path fill="url(#r)" d="M302.426 185.196c-20.373-45.374-33.415-123.931-40.561-179.167-1.04-8.039-12.671-8.039-13.711 0-.159 1.227-.32 2.465-.485 3.714-3.481 26.429-2.679 53.246 2.453 79.404.589 3.002 1.192 6 1.81 8.989h-3.08c-5.326 0-9.977 4.019-10.321 9.335-.377 5.824 4.235 10.665 9.978 10.665a9.923 9.923 0 0 1 9.629 7.555 573.372 573.372 0 0 0 3.172 12.31h-18.958c-5.326 0-9.977 4.019-10.321 9.335-.377 5.824 4.235 10.665 9.978 10.665h18.02a9.91 9.91 0 0 1 9.373 6.678 270.527 270.527 0 0 0 4.897 13.186h-40.465c-5.326 0-9.977 4.019-10.321 9.335-.377 5.824 4.235 10.665 9.978 10.665h25.896c10.18 0 10.767 15.323.6 15.836-.353.018-.71.027-1.069.027h25.011c14.686-.001 24.512-15.135 18.497-28.532z" data-original="url(#r)"></path></g></svg>