<svg xmlns="http://www.w3.org/2000/svg" version="1.1" xmlns:xlink="http://www.w3.org/1999/xlink" xmlns:svgjs="http://svgjs.com/svgjs" width="512" height="512" x="0" y="0" viewBox="0 0 510 510" style="enable-background:new 0 0 512 512" xml:space="preserve" class=""><g><linearGradient id="c" x1="193.349" x2="495.503" y1="191.225" y2="493.379" gradientUnits="userSpaceOnUse"><stop offset="0" stop-color="#ff755c"></stop><stop offset="1" stop-color="#ff4181"></stop></linearGradient><linearGradient id="d" x1="139.749" x2="98.295" y1="306.032" y2="208.83" gradientUnits="userSpaceOnUse"><stop offset="0" stop-color="#843561" stop-opacity="0"></stop><stop offset="1" stop-color="#3a2f4d"></stop></linearGradient><linearGradient id="a"><stop offset="0" stop-color="#ffce47"></stop><stop offset="1" stop-color="#ff9356"></stop></linearGradient><linearGradient xlink:href="#a" id="e" x1="204.035" x2="456.802" y1="201.767" y2="454.534" gradientUnits="userSpaceOnUse"></linearGradient><linearGradient id="f" x1="170.883" x2="102.269" y1="346.934" y2="193.268" gradientUnits="userSpaceOnUse"><stop offset="0" stop-color="#ff755c" stop-opacity="0"></stop><stop offset="1" stop-color="#ff4181"></stop></linearGradient><linearGradient id="g" x1="195.704" x2="378.007" y1="193.58" y2="375.883" gradientUnits="userSpaceOnUse"><stop offset="0" stop-color="#e4e08e"></stop><stop offset="1" stop-color="#6fa953"></stop></linearGradient><linearGradient id="h" x1="193.428" x2="126.633" y1="348.2" y2="222.468" gradientUnits="userSpaceOnUse"><stop offset="0" stop-color="#43765a" stop-opacity="0"></stop><stop offset="1" stop-color="#43765a"></stop></linearGradient><linearGradient id="i" x1="210.343" x2="349.848" y1="208.219" y2="347.724" gradientUnits="userSpaceOnUse"><stop offset="0" stop-color="#7acbff"></stop><stop offset="1" stop-color="#45a2e0"></stop></linearGradient><linearGradient id="j" x1="207.59" x2="155.415" y1="330.157" y2="240.102" gradientUnits="userSpaceOnUse"><stop offset="0" stop-color="#7acbff" stop-opacity="0"></stop><stop offset="1" stop-color="#2f73a0"></stop></linearGradient><linearGradient xlink:href="#a" id="k" x1="63.536" x2="152.166" y1="71.05" y2="71.05" gradientUnits="userSpaceOnUse"></linearGradient><linearGradient id="l" x1="89.298" x2="195.547" y1="193.026" y2="280.465" gradientUnits="userSpaceOnUse"><stop offset="0" stop-color="#ffdecf"></stop><stop offset="1" stop-color="#faa68e"></stop></linearGradient><linearGradient id="b"><stop offset="0" stop-color="#ff9356" stop-opacity="0"></stop><stop offset="1" stop-color="#ff4181"></stop></linearGradient><linearGradient xlink:href="#b" id="m" x1="97.74" x2="97.74" y1="190.665" y2="122.173" gradientUnits="userSpaceOnUse"></linearGradient><linearGradient xlink:href="#b" id="n" x1="84.772" x2="164.586" y1="172.515" y2="348.41" gradientUnits="userSpaceOnUse"></linearGradient><linearGradient xlink:href="#b" id="o" x1="83.004" x2="23.017" y1="218.425" y2="321.115" gradientUnits="userSpaceOnUse"></linearGradient><linearGradient xlink:href="#a" id="p" x1="97.74" x2="97.74" y1="121.319" y2="151.704" gradientUnits="userSpaceOnUse"></linearGradient><path fill="url(#c)" d="M262.306 23.863v30.189l6 105.395c0 5.583-1.868 12.38 3.679 13.022 42.072 4.872 80.595 46.115 79.566 89.724-1.042 44.169-43.064 86.191-87.233 87.233-46.901 1.107-90.281-42.594-90.281-89.245 0-5.403-.485-10.678.501-15.792H15.104a256.462 256.462 0 0 0-.493 15.792c0 136.798 110.896 247.694 247.693 247.694 136.463 0 247.696-111.232 247.695-247.696 0-132.92-104.702-241.387-236.132-247.426-6.307-.29-11.561 4.796-11.561 11.11z" data-original="url(#c)" class=""></path><path fill="url(#d)" d="M263.358 350.425c-46.462.572-90.321-43.913-90.321-90.243a83.32 83.32 0 0 1 1.501-15.792H15.104a258.875 258.875 0 0 0-.476 13.703l248.73 248.73z" data-original="url(#d)"></path><path fill="url(#e)" d="M262.306 54.052v43.499l5 61.896c0 5.583 2.931 13.846 8.477 14.489 42.072 4.872 75.288 44.307 74.259 87.916-1.042 44.169-42.515 84.991-86.684 86.033-46.901 1.107-88.321-41.053-88.321-87.704a83.32 83.32 0 0 1 1.501-15.792H56.776a208.166 208.166 0 0 0-.599 15.137c-.354 112.504 90.583 205.135 203.074 206.763 115.244 1.668 209.184-91.246 209.184-206.107 0-113.845-92.285-206.13-206.129-206.13z" data-original="url(#e)" class=""></path><path fill="url(#f)" d="m61.005 304.47 157.044 157.044a205.178 205.178 0 0 0 41.202 4.776c1.373.02 2.74.014 4.107.007V350.425c-46.462.572-89.321-43.913-89.321-90.243a83.32 83.32 0 0 1 1.501-15.792H56.776a208.166 208.166 0 0 0-.599 15.137 205.205 205.205 0 0 0 4.828 44.943z" data-original="url(#f)"></path><path fill="url(#g)" d="M262.306 96.443v39.924l4 24.081c0 5.583.132 12.38 5.679 13.022 42.072 4.872 78.595 45.115 77.566 88.724-1.042 44.169-41.064 84.191-85.233 85.233-46.901 1.107-90.281-40.594-90.281-87.245a83.32 83.32 0 0 1 1.501-15.792H99.317c-.493 5.2-.75 10.464-.75 15.792 0 90.43 73.308 163.739 163.738 163.739 90.347.001 163.742-73.395 163.741-163.741-.002-90.429-73.311-163.737-163.74-163.737z" data-original="url(#g)"></path><path fill="url(#h)" d="M262.304 423.921c.352 0 .702-.011 1.054-.013v-75.483c-46.462.572-89.321-41.913-89.321-88.243a83.32 83.32 0 0 1 1.501-15.792H99.317c-.493 5.2-.75 10.464-.75 15.792-.001 90.43 73.308 163.739 163.737 163.739z" data-original="url(#h)"></path><path fill="url(#i)" d="M262.306 136.174v30.274c0 5.583 4.132 10.38 9.679 11.022 42.072 4.872 74.595 41.115 73.566 84.724-1.042 44.169-37.064 80.191-81.233 81.233-46.901 1.107-85.281-36.594-85.281-83.245a83.32 83.32 0 0 1 1.501-15.792h-41.243a125.769 125.769 0 0 0-.997 15.792c0 69.073 56.481 124.961 125.776 123.996 66.789-.93 121.297-55.439 122.228-122.228.965-69.295-54.923-125.776-123.996-125.776z" data-original="url(#i)"></path><path fill="url(#j)" d="M263.358 384.178v-40.753c-46.462.572-84.321-36.913-84.321-83.243a83.32 83.32 0 0 1 1.501-15.792h-41.243a125.769 125.769 0 0 0-.997 15.792c0 68.835 56.093 124.568 125.06 123.996z" data-original="url(#j)"></path><path fill="url(#k)" d="M111.451 2.124H84.028c-11.891 0-21.53 9.639-21.53 21.53v4.85c0 10.253 1.529 20.449 4.538 30.251a103.116 103.116 0 0 1 4.538 30.251v50.97h52.33v-50.97c0-10.253 1.529-20.449 4.538-30.251a103.116 103.116 0 0 0 4.538-30.251v-4.85c.001-11.891-9.639-21.53-21.529-21.53z" data-original="url(#k)"></path><path fill="url(#l)" d="M14.034 142.003V255.94a4.242 4.242 0 0 0 4.242 4.242h19.925a4.24 4.24 0 0 0 3.928-2.641l3.367-8.264c1.471-3.61 6.624-3.492 7.926.183l2.801 7.899a4.242 4.242 0 0 0 3.998 2.824h45.248a4.242 4.242 0 0 0 3.809-2.375l3.528-7.196c1.239-2.528 4.553-3.17 6.646-1.286a4.243 4.243 0 0 0 6.235-.613l1.985-2.654c2.134-2.854 6.623-1.964 7.506 1.488l2.418 9.446a4.242 4.242 0 0 0 4.109 3.19h35.497a4.242 4.242 0 0 0 4.242-4.242V142.003z" data-original="url(#l)"></path><path fill="url(#m)" d="m14.034 158.341 96.633 96.633 2.139-4.364c1.239-2.528 4.553-3.17 6.646-1.286a4.243 4.243 0 0 0 6.235-.613l1.985-2.654c2.134-2.854 6.623-1.964 7.507 1.488l2.418 9.446a4.242 4.242 0 0 0 4.109 3.19h35.497a4.242 4.242 0 0 0 4.242-4.242V142.003H14.034z" data-original="url(#m)"></path><path fill="url(#n)" d="M163.065 142.003H32.415v118.179h5.786a4.24 4.24 0 0 0 3.928-2.642l3.367-8.264c1.471-3.61 6.624-3.492 7.926.183l2.801 7.899a4.242 4.242 0 0 0 3.998 2.824h45.248a4.242 4.242 0 0 0 3.809-2.375l3.528-7.196c1.239-2.528 4.553-3.17 6.646-1.286a4.243 4.243 0 0 0 6.235-.613l1.985-2.654c2.134-2.854 6.623-1.964 7.507 1.488l2.418 9.446a4.242 4.242 0 0 0 4.109 3.19h21.358V142.003z" data-original="url(#n)"></path><path fill="url(#o)" d="M130.529 142.003H64.95v118.179h40.52a4.242 4.242 0 0 0 3.809-2.375l3.528-7.196c1.239-2.528 4.553-3.17 6.646-1.286a4.243 4.243 0 0 0 6.235-.613l1.985-2.654a4.16 4.16 0 0 1 2.857-1.663z" data-original="url(#o)"></path><path fill="url(#p)" d="M182.277 157.51H13.202C5.911 157.51 0 151.599 0 144.308v-8.782c0-7.291 5.911-13.202 13.202-13.202h169.075c7.291 0 13.202 5.911 13.202 13.202v8.782c0 7.291-5.911 13.202-13.202 13.202z" data-original="url(#p)"></path></g></svg>