<svg xmlns="http://www.w3.org/2000/svg" version="1.1" xmlns:xlink="http://www.w3.org/1999/xlink" xmlns:svgjs="http://svgjs.com/svgjs" width="512" height="512" x="0" y="0" viewBox="0 0 512 512" style="enable-background:new 0 0 512 512" xml:space="preserve" class=""><g><path fill="#eef0f5" d="M512 304.82v99.98c0 15.49-12.56 28.06-28.06 28.06H347.81l-1.5-30.1-13.5-270.62h79.77c15.5 0 28.06 12.57 28.06 28.06v116.3h43.05c15.63 0 28.31 12.68 28.31 28.32z" data-original="#eef0f5" class=""></path><path fill="#dae1ea" d="M512 304.82v99.98c0 15.49-12.56 28.06-28.06 28.06H347.81l-1.5-30.1c8.38-.69 16.15-4.91 21.1-11.79 13.04-18.14 34.33-29.95 58.37-29.95 9.96 0 19.45 2.03 28.07 5.69 13.36 5.68 28.15-4.4 28.15-18.91v-42.98c0-15.64-12.68-28.32-28.31-28.32h30c15.63 0 28.31 12.68 28.31 28.32zM382.58 132.14h30c15.5 0 28.06 12.57 28.06 28.06v116.3h-30V160.2c0-15.49-12.56-28.06-28.06-28.06z" data-original="#dae1ea" class=""></path><path fill="#00c2f3" d="M347.81 104.26v273.71l-220.47-19.02L0 347.97V104.26c0-15.03 12.18-27.21 27.21-27.21H320.6c15.03 0 27.21 12.18 27.21 27.21z" data-original="#00c2f3" class=""></path><path fill="#1e90ff" d="M347.81 104.26v273.71l-220.47-19.02c9.44-5.66 15.95-16.03 15.95-28.14 0-13.8-8.71-26-21.67-30.77-57.85-21.29-99.12-76.89-99.12-142.13 0-29.74 8.57-57.47 23.38-80.86H320.6c15.03 0 27.21 12.18 27.21 27.21z" data-original="#1e90ff" class=""></path><path fill="#b9cfdf" d="M347.81 347.97v84.89H27.21C12.18 432.86 0 420.68 0 405.65v-57.68z" data-original="#b9cfdf" class=""></path><path fill="#00c2f3" d="M440.64 161.95V276.5H386a5.36 5.36 0 0 1-5.36-5.36V167.31c0-2.96 2.4-5.36 5.36-5.36z" data-original="#00c2f3" class=""></path><path fill="#fbdf63" d="M512 315.48v30h-38.61c-8.28 0-15-6.71-15-15 0-4.14 1.68-7.89 4.4-10.61a14.95 14.95 0 0 1 10.6-4.39z" data-original="#fbdf63"></path><path fill="#b9cfdf" d="M405.48 315.482h-17.34c-4.143 0-7.5 3.358-7.5 7.5s3.357 7.5 7.5 7.5h17.34a7.5 7.5 0 0 0 0-15z" data-original="#b9cfdf" class=""></path><path fill="#1e90ff" d="M410.64 161.95h30V276.5h-30z" data-original="#1e90ff" class=""></path><path fill="#f9d11f" d="M482 315.48h30v30h-30z" data-original="#f9d11f"></path><path fill="#90abbd" d="M347.81 347.97v84.89H27.21C12.18 432.86 0 420.68 0 405.65v-30c0 .95.05 1.88.14 2.8 1.64 15.98 21.87 21.56 32 9.1 13.18-16.19 33.26-26.53 55.76-26.53 5.43 0 10.72.6 15.81 1.74 2.4.54 4.78.8 7.12.8 11.45 0 21.83-6.17 27.63-15.59z" data-original="#90abbd"></path><path fill="#56788b" d="M425.78 388.683c-24.359 0-44.178 19.818-44.178 44.178s19.818 44.178 44.178 44.178 44.179-19.818 44.179-44.178-19.819-44.178-44.179-44.178zM132.08 432.86c0 24.36-19.82 44.18-44.18 44.18-5.26 0-10.31-.93-15-2.63-17-6.14-29.18-22.45-29.18-41.55s12.18-35.41 29.18-41.55a43.93 43.93 0 0 1 15-2.63c24.36 0 44.18 19.82 44.18 44.18z" data-original="#56788b"></path><g fill="#415e6f"><path d="M132.08 432.86c0 24.36-19.82 44.18-44.18 44.18-5.26 0-10.31-.93-15-2.63 17-6.14 29.18-22.45 29.18-41.55S89.9 397.45 72.9 391.31a43.93 43.93 0 0 1 15-2.63c24.36 0 44.18 19.82 44.18 44.18zM469.958 432.86c0 24.36-19.82 44.18-44.18 44.18-5.26 0-10.31-.93-15-2.63 17-6.14 29.18-22.45 29.18-41.55s-12.18-35.41-29.18-41.55a43.93 43.93 0 0 1 15-2.63c24.36 0 44.18 19.82 44.18 44.18z" fill="#415e6f" data-original="#415e6f"></path></g><path fill="#ed2061" d="M296.85 157.91c0 54.44-36.16 102.66-88.19 117.96l-29.45 29.45a7.463 7.463 0 0 1-4.96 2.19c-.12.01-.23.01-.35.01-1.91 0-3.83-.73-5.3-2.2l-29.45-29.45c-52.03-15.3-88.19-63.52-88.19-117.96 0-62.71 47.2-114.62 107.94-122.04 4.92-.6 9.92-.91 15-.91 67.8 0 122.95 55.16 122.95 122.95z" data-original="#ed2061" class=""></path><path fill="#c71e54" d="M296.85 157.91c0 54.44-36.16 102.66-88.19 117.96l-29.45 29.45a7.463 7.463 0 0 1-4.96 2.19l4.41-31.64c52.03-15.3 88.19-63.52 88.19-117.96 0-62.71-47.2-114.62-107.95-122.04 4.92-.6 9.92-.91 15-.91 67.8 0 122.95 55.16 122.95 122.95z" data-original="#c71e54" class=""></path><path fill="#eef0f5" d="M244.37 157.91c0 38.85-31.61 70.47-70.47 70.47-5.14 0-10.16-.55-14.99-1.62-31.67-6.88-55.47-35.14-55.47-68.85 0-33.72 23.8-61.98 55.47-68.86 4.83-1.06 9.85-1.61 14.99-1.61 38.86 0 70.47 31.61 70.47 70.47z" data-original="#eef0f5" class=""></path><path fill="#dae1ea" d="M244.37 157.91c0 38.85-31.61 70.47-70.47 70.47-5.14 0-10.16-.55-14.99-1.62 31.67-6.89 55.46-35.15 55.46-68.85 0-33.71-23.79-61.97-55.46-68.86 4.83-1.06 9.85-1.61 14.99-1.61 38.86 0 70.47 31.61 70.47 70.47z" data-original="#dae1ea" class=""></path></g></svg>