<svg width="500" height="500" viewBox="0 0 500 500" fill="none" xmlns="http://www.w3.org/2000/svg">
<path d="M0 100C0 44.7715 44.7715 0 100 0H400C455.228 0 500 44.7715 500 100V400C500 455.228 455.228 500 400 500H100C44.7715 500 0 455.228 0 400V100Z" fill="#06C167"/>
<path d="M70.1196 230.61C61.5329 230.61 55.0393 228.195 50.6386 223.365C46.2379 218.428 44.0376 211.397 44.0376 202.274V195.834H60.7816V203.562C60.7816 210.861 63.8406 214.51 69.9586 214.51C72.9639 214.51 75.2179 213.651 76.7206 211.934C78.3306 210.109 79.1356 207.211 79.1356 203.24C79.1356 198.517 78.0623 194.385 75.9156 190.843C73.7689 187.194 69.7976 182.847 64.0016 177.802C56.7029 171.362 51.6046 165.566 48.7066 160.414C45.8086 155.155 44.3596 149.251 44.3596 142.704C44.3596 133.795 46.6136 126.926 51.1216 122.096C55.6296 117.159 62.1769 114.69 70.7636 114.69C79.2429 114.69 85.6293 117.159 89.9226 122.096C94.3233 126.926 96.5236 133.903 96.5236 143.026V147.695H79.7796V141.899C79.7796 138.035 79.0283 135.244 77.5256 133.527C76.0229 131.702 73.8226 130.79 70.9246 130.79C65.0213 130.79 62.0696 134.386 62.0696 141.577C62.0696 145.656 63.1429 149.466 65.2896 153.008C67.5436 156.55 71.5686 160.843 77.3646 165.888C84.7706 172.328 89.8689 178.178 92.6596 183.437C95.4503 188.696 96.8456 194.868 96.8456 201.952C96.8456 211.183 94.5379 218.267 89.9226 223.204C85.4146 228.141 78.8136 230.61 70.1196 230.61ZM120.846 132.4H102.331V116.3H157.071V132.4H138.556V229H120.846V132.4ZM165.645 116.3H191.888C201.012 116.3 207.666 118.447 211.852 122.74C216.038 126.926 218.131 133.42 218.131 142.221V149.144C218.131 160.843 214.267 168.249 206.539 171.362V171.684C210.833 172.972 213.838 175.602 215.555 179.573C217.38 183.544 218.292 188.857 218.292 195.512V215.315C218.292 218.535 218.4 221.165 218.614 223.204C218.829 225.136 219.366 227.068 220.224 229H202.192C201.548 227.175 201.119 225.458 200.904 223.848C200.69 222.238 200.582 219.34 200.582 215.154V194.546C200.582 189.394 199.724 185.798 198.006 183.759C196.396 181.72 193.552 180.7 189.473 180.7H183.355V229H165.645V116.3ZM189.795 164.6C193.337 164.6 195.967 163.688 197.684 161.863C199.509 160.038 200.421 156.979 200.421 152.686V143.992C200.421 139.913 199.67 136.962 198.167 135.137C196.772 133.312 194.518 132.4 191.405 132.4H183.355V164.6H189.795ZM230.58 116.3H278.88V132.4H248.29V162.185H272.601V178.285H248.29V212.9H278.88V229H230.58V116.3ZM289.068 116.3H337.368V132.4H306.778V162.185H331.089V178.285H306.778V212.9H337.368V229H289.068V116.3ZM361.403 132.4H342.888V116.3H397.628V132.4H379.113V229H361.403V132.4ZM429.225 230.61C420.638 230.61 414.145 228.195 409.744 223.365C405.343 218.428 403.143 211.397 403.143 202.274V195.834H419.887V203.562C419.887 210.861 422.946 214.51 429.064 214.51C432.069 214.51 434.323 213.651 435.826 211.934C437.436 210.109 438.241 207.211 438.241 203.24C438.241 198.517 437.168 194.385 435.021 190.843C432.874 187.194 428.903 182.847 423.107 177.802C415.808 171.362 410.71 165.566 407.812 160.414C404.914 155.155 403.465 149.251 403.465 142.704C403.465 133.795 405.719 126.926 410.227 122.096C414.735 117.159 421.282 114.69 429.869 114.69C438.348 114.69 444.735 117.159 449.028 122.096C453.429 126.926 455.629 133.903 455.629 143.026V147.695H438.885V141.899C438.885 138.035 438.134 135.244 436.631 133.527C435.128 131.702 432.928 130.79 430.03 130.79C424.127 130.79 421.175 134.386 421.175 141.577C421.175 145.656 422.248 149.466 424.395 153.008C426.649 156.55 430.674 160.843 436.47 165.888C443.876 172.328 448.974 178.178 451.765 183.437C454.556 188.696 455.951 194.868 455.951 201.952C455.951 211.183 453.643 218.267 449.028 223.204C444.52 228.141 437.919 230.61 429.225 230.61ZM101.811 271.3H148.662V287.4H119.521V318.795H142.383V334.895H119.521V384H101.811V271.3ZM182.754 385.61C174.06 385.61 167.406 383.141 162.79 378.204C158.175 373.267 155.867 366.29 155.867 357.274V298.026C155.867 289.01 158.175 282.033 162.79 277.096C167.406 272.159 174.06 269.69 182.754 269.69C191.448 269.69 198.103 272.159 202.718 277.096C207.334 282.033 209.641 289.01 209.641 298.026V357.274C209.641 366.29 207.334 373.267 202.718 378.204C198.103 383.141 191.448 385.61 182.754 385.61ZM182.754 369.51C188.872 369.51 191.931 365.807 191.931 358.401V296.899C191.931 289.493 188.872 285.79 182.754 285.79C176.636 285.79 173.577 289.493 173.577 296.899V358.401C173.577 365.807 176.636 369.51 182.754 369.51ZM247.217 385.61C238.523 385.61 231.868 383.141 227.253 378.204C222.638 373.267 220.33 366.29 220.33 357.274V298.026C220.33 289.01 222.638 282.033 227.253 277.096C231.868 272.159 238.523 269.69 247.217 269.69C255.911 269.69 262.566 272.159 267.181 277.096C271.796 282.033 274.104 289.01 274.104 298.026V357.274C274.104 366.29 271.796 373.267 267.181 378.204C262.566 383.141 255.911 385.61 247.217 385.61ZM247.217 369.51C253.335 369.51 256.394 365.807 256.394 358.401V296.899C256.394 289.493 253.335 285.79 247.217 285.79C241.099 285.79 238.04 289.493 238.04 296.899V358.401C238.04 365.807 241.099 369.51 247.217 369.51ZM286.081 271.3H313.129C321.93 271.3 328.531 273.661 332.932 278.384C337.333 283.107 339.533 290.03 339.533 299.153V356.147C339.533 365.27 337.333 372.193 332.932 376.916C328.531 381.639 321.93 384 313.129 384H286.081V271.3ZM312.807 367.9C315.705 367.9 317.905 367.041 319.408 365.324C321.018 363.607 321.823 360.816 321.823 356.952V298.348C321.823 294.484 321.018 291.693 319.408 289.976C317.905 288.259 315.705 287.4 312.807 287.4H303.791V367.9H312.807ZM374.51 385.61C365.924 385.61 359.43 383.195 355.029 378.365C350.629 373.428 348.428 366.397 348.428 357.274V350.834H365.172V358.562C365.172 365.861 368.231 369.51 374.349 369.51C377.355 369.51 379.609 368.651 381.111 366.934C382.721 365.109 383.526 362.211 383.526 358.24C383.526 353.517 382.453 349.385 380.306 345.843C378.16 342.194 374.188 337.847 368.392 332.802C361.094 326.362 355.995 320.566 353.097 315.414C350.199 310.155 348.75 304.251 348.75 297.704C348.75 288.795 351.004 281.926 355.512 277.096C360.02 272.159 366.568 269.69 375.154 269.69C383.634 269.69 390.02 272.159 394.313 277.096C398.714 281.926 400.914 288.903 400.914 298.026V302.695H384.17V296.899C384.17 293.035 383.419 290.244 381.916 288.527C380.414 286.702 378.213 285.79 375.315 285.79C369.412 285.79 366.46 289.386 366.46 296.577C366.46 300.656 367.534 304.466 369.68 308.008C371.934 311.55 375.959 315.843 381.755 320.888C389.161 327.328 394.26 333.178 397.05 338.437C399.841 343.696 401.236 349.868 401.236 356.952C401.236 366.183 398.929 373.267 394.313 378.204C389.805 383.141 383.204 385.61 374.51 385.61Z" fill="black"/>
<path d="M100 1H400V-1H100V1ZM499 100V400H501V100H499ZM400 499H100V501H400V499ZM1 400V100H-1V400H1ZM100 499C45.3238 499 1 454.676 1 400H-1C-1 455.781 44.2192 501 100 501V499ZM499 400C499 454.676 454.676 499 400 499V501C455.781 501 501 455.781 501 400H499ZM400 1C454.676 1 499 45.3238 499 100H501C501 44.2192 455.781 -1 400 -1V1ZM100 -1C44.2192 -1 -1 44.2192 -1 100H1C1 45.3238 45.3238 1 100 1V-1Z" fill="white" fill-opacity="0.1"/>
</svg>
